<svg xmlns="http://www.w3.org/2000/svg" viewBox="0 0 82.34 82.36"><g id="Layer_2" data-name="Layer 2"><g id="Layer_1-2" data-name="Layer 1"><g id="iGRskD.tif"><g id="abACf7.tif"><path d="M20.58,0H61.75l.62.16a38.5,38.5,0,0,1,5.5,1.39c8.2,3.37,13,9.51,14.28,18.29a20.65,20.65,0,0,1,.18,3.05c0,12.19,0,24.39,0,36.58a21.16,21.16,0,0,1-1.86,9.21c-4.19,8.84-11.2,13.53-21,13.63-12.19.11-24.39,0-36.58,0a21.48,21.48,0,0,1-6.58-.9A22.33,22.33,0,0,1,.68,65.2C.37,64.07.22,62.9,0,61.75V20.58c.14-.78.24-1.57.42-2.35C2.55,9.11,8.11,3.24,17.13.68,18.26.36,19.43.22,20.58,0ZM41.17,18.62A22.55,22.55,0,1,0,63.71,41.21,22.56,22.56,0,0,0,41.17,18.62Zm23.9-8.2a6.83,6.83,0,1,0,6.85,6.81A6.87,6.87,0,0,0,65.07,10.42Z"/><path d="M41.17,23.46A17.71,17.71,0,1,1,23.46,41.17,17.7,17.7,0,0,1,41.17,23.46Z"/><path d="M67.08,17.2a2,2,0,0,1-1.93,2.05,2.13,2.13,0,0,1-2.07-2,2.06,2.06,0,0,1,2-2A2,2,0,0,1,67.08,17.2Z"/></g></g></g></g></svg>