<svg id="SMART_Logotype" data-name="SMART Logotype" xmlns="http://www.w3.org/2000/svg" xmlns:xlink="http://www.w3.org/1999/xlink" viewBox="0 0 805.46 456.92"><defs><style>.cls-1{fill:#009639;}.cls-2{fill:#fff;}.cls-3{fill:#e0457b;}.cls-4{fill:#f1c400;}.cls-5{fill:#f2a900;}.cls-6{fill:url(#Axiata_Prism_Gradient_Purple);}.cls-7{fill:url(#Axiata_Prism_Gradient_Orange);}.cls-8{fill:url(#Axiata_Prism_Gradient_Red);}</style><linearGradient id="Axiata_Prism_Gradient_Purple" x1="702.28" y1="178.65" x2="799.86" y2="178.65" gradientUnits="userSpaceOnUse"><stop offset="0" stop-color="#271f62"/><stop offset="0.09" stop-color="#411f66"/><stop offset="0.2" stop-color="#601e6a"/><stop offset="1" stop-color="#b83679"/></linearGradient><linearGradient id="Axiata_Prism_Gradient_Orange" x1="751.07" y1="65.92" x2="751.07" y2="178.62" gradientUnits="userSpaceOnUse"><stop offset="0.1" stop-color="#e64114"/><stop offset="0.24" stop-color="#e84f11"/><stop offset="0.75" stop-color="#ef7f06"/><stop offset="1" stop-color="#f29102"/></linearGradient><linearGradient id="Axiata_Prism_Gradient_Red" x1="702.28" y1="234.98" x2="799.86" y2="234.98" gradientUnits="userSpaceOnUse"><stop offset="0.05" stop-color="#ae223b"/><stop offset="0.1" stop-color="#b31f3d"/><stop offset="0.45" stop-color="#ce1048"/><stop offset="0.76" stop-color="#de074f"/><stop offset="1" stop-color="#e40451"/></linearGradient></defs><path class="cls-1" d="M416.8,470.41c0-8.78-3.42-13.69-8.57-17.11-4.15-2.68-9.77-4.16-16.13-4.16-14,0-25,8.57-25,19.58v82.94H334.84V470.41c0-8.78-3.43-13.69-8.57-17.11-4.16-2.68-9.79-4.16-16.15-4.16-14,0-25,8.57-25,19.58v82.94H252.37V441.79c0-4.65,1.23-8.56,4.65-12,8.56-8.06,22.27-9.53,28.14-10.28v16.17c6.36-9.55,20.55-15.67,33.78-15.67,17.61,0,32.53,7.34,41.35,18.6,8.57-11.26,23.48-18.6,40.86-18.6,27.14,0,48.69,16.89,48.69,38.67v93h-33Z" transform="translate(-96.96 -97.65)"/><path class="cls-1" d="M683.48,421.55c-20.22,0-36,10.22-45.47,28.29V420c-3.63.92-18.85,5.5-27.1,14.16-3.56,3.65-5.39,7.84-5.38,11.29V551.63H638v-50.1c0-29,15.15-46.93,41.62-49.24,3.62-.2,7.48-1,7.48-6.69V421.55Z" transform="translate(-96.96 -97.65)"/><path class="cls-1" d="M735.35,510.89V450.61h28.54l16.32-29.12H735.35V373l-17.93,8.82c-10.22,5-15.73,13.61-15.73,22.12V517.38c0,15.73,6.27,37.14,36,37.14,17.3,0,29.15-6.41,29.15-10.32V521.89c-18.58,8.15-31.46,5.61-31.46-11" transform="translate(-96.96 -97.65)"/><path class="cls-1" d="M97,529l15.92-24.57c19.25,13.6,40.47,20.9,60.06,20.9,17.93,0,28.21-8.61,28.21-21.57,0-31.52-96.57-19.25-96.57-79.33,0-31.83,26.88-51.42,63.06-51.42,22.22,0,46.78,7.31,65.36,19.59l-10.27,17.93c-3,5.3-7.64,6-12.94,3.3-13.95-7.59-29.55-11.95-42.82-11.95-17.59,0-26.53,9-26.53,19.91,0,30.56,96.88,19.95,96.88,79,0,34.84-27.88,53.74-65.36,53.74C145.4,554.57,117.85,545.28,97,529Z" transform="translate(-96.96 -97.65)"/><path class="cls-1" d="M580.68,475.93c0-17.7-3.19-32.08-12.43-41.44C556,422.17,542,420.11,524.31,420.11c-18.24,0-35.23,7.4-38.43,9.74a10,10,0,0,0-4.46,8.4v17.44c12.08-4.13,27.84-6.52,37.42-6.56,9.86,0,18.18,1.07,23.6,5.56,6.29,5.18,7,13.76,7.08,17.85,0,1.47-.09,2.43-.09,2.43l-.07.53-.49-.09s-14.53-1.53-29.86-1.53-28.56,2.84-37.79,10c-8,6.32-14.28,18.23-14.23,30.9,0,14.42,6.29,24.47,13.6,30.48,7.66,6.24,21.85,9.15,33.74,9.08,12.7,0,21.36-2.14,26.7-4.24s7.62-4.25,7.62-4.25l.87-.76,0,6.7,31.26,0Zm-31.23,31.95c0,7.07-2.92,16.49-13,20.91a40.88,40.88,0,0,1-15.1,3.31,26.34,26.34,0,0,1-13.93-3.73c-5.39-3.21-7.45-9.08-7.49-14.38a17.91,17.91,0,0,1,2.55-9.55c3.72-5.84,11-9.52,23.21-9.79h2.7c13.58-.1,21.07,2.52,21.07,2.52Z" transform="translate(-96.96 -97.65)"/><polygon class="cls-2" points="599.22 0 599.22 125.09 691.89 178.56 593.95 235.1 702.33 297.64 805.46 238.13 805.46 119.06 599.22 0"/><polygon class="cls-3" points="604.71 235.01 702.28 291.33 702.28 178.62 604.71 235.01"/><polygon class="cls-4" points="604.71 9.62 604.71 122.27 702.28 65.92 604.71 9.62"/><polygon class="cls-5" points="702.28 65.92 702.28 65.92 604.71 122.27 702.28 178.62 702.28 65.92"/><polygon class="cls-6" points="799.86 235.01 799.86 122.28 702.28 178.62 799.86 235.01"/><polygon class="cls-7" points="702.28 178.62 702.28 178.62 799.86 122.27 702.28 65.92 702.28 178.62"/><polygon class="cls-8" points="799.86 235.01 799.86 235.01 702.28 178.62 702.28 291.33 799.86 235.01"/></svg>