<svg xmlns="http://www.w3.org/2000/svg" width="17.362" height="15.036" viewBox="0 0 17.362 15.036">
  <path id="Path_8589" data-name="Path 8589" d="M178.42,409.744a.643.643,0,0,1-.445-.65c.007-.685-.023-1.373.026-2.055a11.971,11.971,0,0,1,.7-3.283,8.747,8.747,0,0,1,4.4-5.056,10.336,10.336,0,0,1,3.465-.986c.411-.046.824-.079,1.253-.119v-.684c0-.524,0-1.047,0-1.571a.584.584,0,0,1,1-.452l3.849,3.5c.789.716,1.579,1.43,2.363,2.152a3.038,3.038,0,0,1,.308.391v.289a3.168,3.168,0,0,1-.322.4q-3.055,2.787-6.121,5.563a.946.946,0,0,1-.412.236.559.559,0,0,1-.661-.579c0-.71,0-1.421,0-2.131V404.5c-.069-.01-.128-.023-.186-.026a12.266,12.266,0,0,0-4.8.6,5.53,5.53,0,0,0-3.105,2.5,4.9,4.9,0,0,0-.553,1.536.745.745,0,0,1-.465.631Zm10.553-4.2,4.919-4.471L189,396.626c-.015.033-.024.043-.024.053,0,.452-.023.9,0,1.354a.646.646,0,0,1-.714.736,11.386,11.386,0,0,0-2.65.28,7.807,7.807,0,0,0-3.869,2.009,9.138,9.138,0,0,0-2.448,5.051c.026-.013.04-.016.047-.025a6.875,6.875,0,0,1,2.966-2.014,13.72,13.72,0,0,1,6.06-.689c.43.038.6.246.6.675C188.973,404.536,188.973,405.016,188.973,405.543Z" transform="translate(-177.973 -394.708)" fill="#fdd300"/>
</svg>
