<svg xmlns="http://www.w3.org/2000/svg" width="20.175" height="20.177" viewBox="0 0 20.175 20.177">
  <path id="Path_2204" data-name="Path 2204" d="M5.894,5.365l-3.9-3.906A8.833,8.833,0,0,0,.209-10.9,8.832,8.832,0,0,0-12.152-9.123a8.83,8.83,0,0,0,1.78,12.361,8.83,8.83,0,0,0,10.582,0L4.116,7.144A1.257,1.257,0,1,0,5.894,5.366ZM-5.049,2.483A6.283,6.283,0,0,1-11.333-3.8a6.283,6.283,0,0,1,6.284-6.284A6.283,6.283,0,0,1,1.234-3.8,6.29,6.29,0,0,1-5.049,2.483" transform="translate(13.913 12.664)" fill="#0fae4d"/>
</svg>
