<svg id="Group_2651" data-name="Group 2651" xmlns="http://www.w3.org/2000/svg" width="46.836" height="46.836" viewBox="0 0 46.836 46.836">
  <path id="Path_3695" data-name="Path 3695" d="M2.158,4.316A23.418,23.418,0,0,0,25.576-19.1,23.418,23.418,0,0,0,2.158-42.52,23.419,23.419,0,0,0-21.26-19.1,23.418,23.418,0,0,0,2.158,4.316" transform="translate(21.26 42.519)" fill="#fff"/>
  <path id="Path_3699" data-name="Path 3699" d="M2.878,1.235v8.21c-.025.066-.054.131-.074.2a2.518,2.518,0,0,1-1.391,1.647c-.175.083-.361.141-.55.213v7.575H-25.323V14.031h-1.555c.063-.81.117-1.592.191-2.373a.317.317,0,0,0-.206-.382,2.437,2.437,0,0,1-1.448-2.312q-.007-3.934,0-7.868a3.351,3.351,0,0,1,1.285-2.683.57.57,0,0,0,.227-.5q-.01-3.068,0-6.138a3.9,3.9,0,0,1,3.284-3.842,23.11,23.11,0,0,1,2.887-.074,3.719,3.719,0,0,1,.837.108,4,4,0,0,1,2.412,1.681c.076-.111.139-.2.2-.3A3.1,3.1,0,0,1-14.7-12.131c2.022-.054,4.048-.022,6.072-.014a.956.956,0,0,1,.923.871,5.384,5.384,0,0,1-.563,3.289c-.029.044,0,.123,0,.187.063-.011.141,0,.188-.036a1.589,1.589,0,0,1,1.07-.287c.1.007.2,0,.3,0a3.062,3.062,0,0,1,2.877-3.023,2.982,2.982,0,0,1,2.072.676A3.05,3.05,0,0,1-.634-8.121c.171,0,.326,0,.481,0A1.5,1.5,0,0,1,1.365-6.61,1.5,1.5,0,0,1-.156-5.1a3.89,3.89,0,0,1-.409,0c-.181-.019-.262.054-.351.217a2.348,2.348,0,0,1-.6.866c-.556.37-.469.8-.28,1.287a.376.376,0,0,0,.243.207c.414.063.833.091,1.248.142A3.558,3.558,0,0,1,2.114-1.069a3.251,3.251,0,0,1,.475.809,3.859,3.859,0,0,1,.289,1.495M-6.21,8.01c.178,1.647-.217,2.965-1.968,3.476v6.569H-4.19a1.2,1.2,0,0,0,.017-.132c0-1.835,0-3.67,0-5.505a.525.525,0,0,0-.145-.319c-.108-.112-.221-.22-.334-.326a.511.511,0,0,1-.019-.73l.009-.009a.513.513,0,0,1,.74,0c.185.193.368.382.558.565a.621.621,0,0,1,.206.492c-.008,1.877,0,3.754,0,5.632v.322H-.158V8.01ZM-16.237,9.016v9.03h3c0-1.9,0-3.782-.007-5.658a.475.475,0,0,0-.143-.29c-.11-.111-.223-.219-.336-.324a.513.513,0,0,1-.019-.733l.008-.007a.512.512,0,0,1,.738,0c.186.193.371.382.563.565a.618.618,0,0,1,.2.492c-.008,1.988,0,3.975,0,5.964h3.007V9.016ZM-7.189-1.333A3.978,3.978,0,0,1-6.179,1.69c-.035,1.646-.009,3.292-.009,4.939V6.97H-.143V6.611c0-1.227.036-2.455-.014-3.68A2.547,2.547,0,0,1,.2,1.66a.49.49,0,0,1,.659-.223l.009.006a.49.49,0,0,1,.218.657A5.55,5.55,0,0,0,.869,4.454h.987c0-1.2.064-2.385-.018-3.561A2.386,2.386,0,0,0-.273-1.343c-.422-.075-.85-.118-1.278-.153-.078-.006-.186.083-.243.156a5.246,5.246,0,0,1-.568.778,1.983,1.983,0,0,1-3.149-.71c-.042-.091-.139-.23-.2-.226-.467.035-.933.1-1.477.165m-11.1,0c-.546-.064-1.022-.128-1.5-.164-.059,0-.164.133-.191.221-.236.781-.458,1.565-.683,2.35a1.169,1.169,0,0,1-.7.8,1.166,1.166,0,0,1-1.576-.81C-23.17.287-23.4-.485-23.6-1.264c-.066-.251-.184-.272-.416-.228a6.112,6.112,0,0,1-.8.1,2.541,2.541,0,0,0-2.519,2.632c0,.986,0,1.972,0,2.958,0,.089.011.18.018.26h1a8.473,8.473,0,0,1,.356-3.2.5.5,0,0,1,.633-.318l.009,0A.5.5,0,0,1-25,1.564c-.562,1.783-.224,3.607-.339,5.4h6.061V6.6q0-2.69,0-5.381a4.494,4.494,0,0,1,.034-.6,3.641,3.641,0,0,1,.957-1.961m1.01,13.331a2.588,2.588,0,0,1-2.007-2.756c.028-.4,0-.811,0-1.225h-6.081c-.139,1.678-.276,3.339-.414,5h8.5Zm5.134-11.8-.066.026V7.973h3c0-1.734.023-3.443-.012-5.152a2.567,2.567,0,0,1,.406-1.268.377.377,0,0,1,.506-.163l.227.115a.375.375,0,0,1,.152.53s0,0,0,0A2.039,2.039,0,0,0-8.21,3.2C-8.192,4.68-8.2,6.16-8.2,7.638v.338h1c0-2.348.03-4.676-.013-7A2.439,2.439,0,0,0-9.1-1.31a.479.479,0,0,0-.65.261c-.423.779-.9,1.528-1.382,2.324L-12.143.195M-16.978,1.3a.179.179,0,0,1,.235.068,2.477,2.477,0,0,1,.484,1.842V7.973h3V.122l-1.071,1.164c-.512-.853-1-1.649-1.469-2.45a.3.3,0,0,0-.366-.184,2.517,2.517,0,0,0-2.109,2.553c-.007,2.171,0,4.342,0,6.513,0,.089.012.178.018.261h.991V7.626c0-1.3-.018-2.6.007-3.9a3.164,3.164,0,0,0-.425-1.979c-.01-.015-.006-.041-.012-.085l.717-.359m-8.85-3.57c.24-.044.445-.087.651-.116s.415-.052.625-.066c.826-.059.818-.061,1.03-.855a.368.368,0,0,0-.16-.445,2.726,2.726,0,0,1-1.079-1.819,12.485,12.485,0,0,1-.054-1.6,1.989,1.989,0,0,1,1.972-1.96c.682-.006,1.364,0,2.046,0a1.942,1.942,0,0,1,1.961,1.576,8.005,8.005,0,0,1,.059,1.314A2.988,2.988,0,0,1-19.95-3.714,1.22,1.22,0,0,0-19.8-2.539a.314.314,0,0,0,.091.019l1.925.221a.181.181,0,0,0,.015-.052c0-1.983.032-3.965-.011-5.947A2.854,2.854,0,0,0-20.3-11.083a20.5,20.5,0,0,0-2.386-.061A2.993,2.993,0,0,0-25.828-8q0,2.706,0,5.413ZM-5.65-7.135h-.032c0,.356-.012.713,0,1.068A2.03,2.03,0,0,0-3.768-4.1,1.946,1.946,0,0,0-1.712-5.781a13.39,13.39,0,0,0,.03-2.539,1.973,1.973,0,0,0-1.952-1.816A1.985,1.985,0,0,0-5.64-8.419a8.759,8.759,0,0,0-.01,1.284m-3.067-4c-1.976,0-3.924-.033-5.87.014a2.236,2.236,0,0,0-2.076,1.689,1.917,1.917,0,0,0,.031,1.313h.843a1.075,1.075,0,0,1,1.252-1.008h3.584c.789,0,1.074.221,1.3,1.076a1.751,1.751,0,0,0,.36-.262,3.99,3.99,0,0,0,.576-2.822m-6.03,3.027c0,.715-.021,1.4.006,2.075A2.017,2.017,0,0,0-12.836-4.1a1.98,1.98,0,0,0,2.064-1.678,10.982,10.982,0,0,0,.052-1.44c.007-.3,0-.6,0-.9ZM-21.8-8.123c-.335,0-.671-.01-1.006,0a1.01,1.01,0,0,0-1.007,1c-.014.367-.018.735,0,1.1a2.028,2.028,0,0,0,1.928,1.923,1.978,1.978,0,0,0,2.041-1.673A6.769,6.769,0,0,0-19.8-7.208a.983.983,0,0,0-.991-.911c-.335-.013-.671,0-1.007,0M-8.2-5.491A1.743,1.743,0,0,1-9.61-5.1a.339.339,0,0,0-.376.228,2.376,2.376,0,0,1-.6.865.887.887,0,0,0-.3,1.2.372.372,0,0,0,.356.3c.741.109,1.476.261,2.214.392a.664.664,0,0,0,.238,0c.552-.11,1.1-.265,1.653-.328.838-.1.838-.069,1.041-.887a.38.38,0,0,0-.128-.4,9.062,9.062,0,0,1-.9-1.15c-.108-.165-.188-.238-.378-.225A1.735,1.735,0,0,1-8.2-5.491M-21.272,18.055H-19.3v-4h-1.974Zm0-4M-24.3,18.046h1.978V14.054H-24.3Zm0-3.992,7.544-16.349c.636-.076,1.237-.142,1.836-.226.1-.014.254-.08.284-.161a4.9,4.9,0,0,0,.2-.757.235.235,0,0,0-.045-.195A3.29,3.29,0,0,1-15.6-5.124h-1.147ZM.872,10.388a1.475,1.475,0,0,0,1-1.45c.006-1.079,0-2.159,0-3.238a1.73,1.73,0,0,0-.022-.2H.872Zm-27.407-.064c.089-1.658.175-3.238.261-4.827h-1.059c0,1.214-.018,2.407.008,3.6a1.452,1.452,0,0,0,.79,1.228m8.282,7.722h.97V14.054h-.97Zm0-3.992M-21.106-3.133c-.252.015-.5.037-.749.044-.223.007-.518-.093-.648.015s-.11.43-.194.64c-.151.383.04.714.121,1.063.138.585.6.191.9.3a.655.655,0,0,0,.371,0,.427.427,0,0,0,.252-.192,2.186,2.186,0,0,0-.053-1.864m16.722-.011c-.078.307-.143.612-.236.909A.82.82,0,0,0-4.4-1.4a.978.978,0,0,0,1.2.2A.919.919,0,0,0-2.73-2.281c-.057-.232-.11-.468-.185-.7-.022-.067-.11-.159-.171-.161-.424-.013-.849-.007-1.3-.007m-7.61.028h-1.437c-.234.558-.251.784-.07.922.742.563.789.579,1.521,0,.369-.292-.063-.614-.013-.92m-5.287,14.008V9.021h-.968a1.583,1.583,0,0,0,.968,1.87m9.087-.5a1.369,1.369,0,0,0,.962-1.361h-.962Zm7.557-16.5c.348,0,.713.1.9-.249a.615.615,0,0,0-.015-.519C.046-7.218-.309-7.108-.636-7.1Zm-6.068-1c-.336.018-.7-.1-.9.247a.619.619,0,0,0,0,.519c.2.347.56.23.891.235Zm-3,1c.36-.009.742.106.919-.285a.613.613,0,0,0-.054-.514c-.213-.3-.552-.2-.865-.187Zm-6.069-1c-.339.018-.715-.111-.907.267a.611.611,0,0,0,.031.517c.213.33.563.213.876.214Zm.966,5.632.639,1.057.59-.6c-.387-.165-.649-.643-1.229-.453m4.141,0c-.585-.176-.856.289-1.254.477l.6.617.658-1.094M-22.2-.052c.084.3.145.577.246.846.064.17.224.186.294.012a8.926,8.926,0,0,0,.26-.858Z" transform="translate(36.153 19.96)" fill="#ffce39"/>
</svg>
