<svg id="Group_2652" data-name="Group 2652" xmlns="http://www.w3.org/2000/svg" width="46.836" height="46.836" viewBox="0 0 46.836 46.836">
  <path id="Path_3698" data-name="Path 3698" d="M2.158,4.316A23.418,23.418,0,0,0,25.576-19.1,23.419,23.419,0,0,0,2.158-42.52,23.419,23.419,0,0,0-21.26-19.1,23.418,23.418,0,0,0,2.158,4.316" transform="translate(21.26 42.519)" fill="#fff"/>
  <path id="Path_3701" data-name="Path 3701" d="M0,1.75c.042-.165.083-.332.126-.5A4.061,4.061,0,0,1,4.045-1.761h1.4c0-.586,0-1.15,0-1.714a.229.229,0,0,0-.1-.147A4.96,4.96,0,0,1,3.209-7.15a1.371,1.371,0,0,0-.039-.156c-.18,0-.361,0-.543,0A1.285,1.285,0,0,1,1.372-8.549c-.015-.64-.01-1.281,0-1.921a1.218,1.218,0,0,1,.7-1.129.349.349,0,0,0,.2-.363,12.9,12.9,0,0,1,.1-1.994,4,4,0,0,1,3.948-3.273c1.225-.012,2.452-.014,3.677,0A4.043,4.043,0,0,1,14-13.286c.015.456.011.914,0,1.371a.277.277,0,0,0,.18.292,1.3,1.3,0,0,1,.739,1.22q.007.864,0,1.728A1.322,1.322,0,0,1,13.56-7.3c-.447.006-.452,0-.531.433A4.987,4.987,0,0,1,11.007-3.66a.487.487,0,0,0-.173.329c-.019.51-.008,1.021-.008,1.569.486,0,.948,0,1.411,0A3.927,3.927,0,0,1,15.1-.574a4,4,0,0,1,1.2,2.83c.013.495-.021.99.008,1.483a1.51,1.51,0,0,1-1.039,1.69H4.282a1.178,1.178,0,0,1-.21-.3c-.088-.3.145-.528.509-.527,3.366.013,6.732.008,10.1.008.083,0,.165,0,.248,0a.491.491,0,0,0,.519-.517c.013-.319.012-.641,0-.961A9.109,9.109,0,0,0,15.388,1.7a3.316,3.316,0,0,0-4-2.608c.262.289.513.561.76.837a.857.857,0,0,1-.145,1.354c-1.187.8-2.387,1.593-3.579,2.39a.455.455,0,0,1-.558.008c-1.2-.8-2.4-1.6-3.6-2.4A.826.826,0,0,1,3.91.322a1.286,1.286,0,0,1,.252-.415c.229-.274.476-.534.756-.844-.364,0-.655-.007-.946,0A3.186,3.186,0,0,0,.878,1.833,21.436,21.436,0,0,0,.824,4c0,.414.192.6.6.608s.823.007,1.235,0c.232,0,.443.019.539.274s-.056.411-.237.551H1.043A1.544,1.544,0,0,1,0,4.385ZM12.24-10.939a2.387,2.387,0,0,1-2.424-1.146A3.407,3.407,0,0,1,6.88-10.927c-.7-.031-1.409-.007-2.113-.007H4.006v.265c0,.969,0,1.939,0,2.908A4.139,4.139,0,0,0,9.028-3.682a4.1,4.1,0,0,0,3.209-3.592c.052-1.168.025-2.34.032-3.511a.953.953,0,0,0-.029-.155m-9.113-.848a.7.7,0,0,0,.119.022c1.39,0,2.78.013,4.169-.006a2.239,2.239,0,0,0,1.878-1.012,2.494,2.494,0,0,0,.41-1.288.4.4,0,0,1,.436-.422.42.42,0,0,1,.389.475,1.894,1.894,0,0,1-.085.62,1.285,1.285,0,0,0,1.014,1.577,14.853,14.853,0,0,0,1.719.013c0-.466,0-.948,0-1.43a3.174,3.174,0,0,0-2.992-3.129c-1.352-.045-2.706-.028-4.059-.006a3.012,3.012,0,0,0-2.114.963c-1.033,1.028-.942,2.323-.885,3.622M9.994-3.109a5.036,5.036,0,0,1-3.705,0c0,.394.023.751-.006,1.1a1.773,1.773,0,0,0,.29,1.141.386.386,0,0,0,.258.172c.868.012,1.737.009,2.605,0,.075,0,.193-.019.217-.066a2.411,2.411,0,0,0,.327-.771c.051-.506.014-1.02.014-1.587M3.17-10.933c-.166,0-.318-.006-.471,0a.483.483,0,0,0-.5.5q-.012.9,0,1.805a.487.487,0,0,0,.48.5c.161.011.323,0,.495,0Zm9.954,2.8c.167,0,.3,0,.441,0a.483.483,0,0,0,.52-.486c.018-.61.015-1.222,0-1.833a.464.464,0,0,0-.435-.479c-.17-.015-.341,0-.527,0ZM9.222.164H7.061c.361.751.712,1.476,1.081,2.243L9.222.164m1.3-.779L9.219,2.1l.042.026L11.6.563,10.522-.615M6.991,2.1l.053-.045L5.76-.612,4.685.563,6.991,2.1" transform="translate(9.367 32.048)" fill="#95d8b4"/>
  <path id="Path_3702" data-name="Path 3702" d="M.33.921h.95V-1.873c-.145,0-.3,0-.447,0a.4.4,0,0,1-.432-.4.4.4,0,0,1,.43-.424q.892-.008,1.783,0a.4.4,0,0,1,.425.405.41.41,0,0,1-.42.413c-.145.007-.291,0-.462,0V.913H3.1c.006-.1.008-.2.015-.31A1.43,1.43,0,0,1,3.854-.573a4.1,4.1,0,0,0,1.9-2.7A4.131,4.131,0,0,0,2.247-8.2a4.1,4.1,0,0,0-3.106.862c-.268.208-.517.207-.679,0s-.1-.451.156-.658A4.954,4.954,0,0,1,6.608-4.855,4.811,4.811,0,0,1,4.34.1c-.195.132-.376.253-.383.524a.481.481,0,0,0,.262.522,1.3,1.3,0,0,1-.055,2.268.346.346,0,0,0-.21.359,2.8,2.8,0,0,1-.063.706,1.27,1.27,0,0,1-1.251.927c-.612.018-1.226.019-1.838,0A1.3,1.3,0,0,1-.52,4.032a1.844,1.844,0,0,1,0-.247c.023-.184-.047-.279-.22-.373a1.311,1.311,0,0,1-.045-2.28c.122-.074.284-.095.272-.318C-.528.556-.541.325-.793.176A4.657,4.657,0,0,1-2.348-1.268a4.9,4.9,0,0,1-.33-5.144c.1-.2.259-.348.474-.269a.638.638,0,0,1,.326.349c.039.1-.05.258-.1.38a4.064,4.064,0,0,0,.491,4.429A4.241,4.241,0,0,0-.613-.7C.2-.119.227-.1.33.921m1.4,1.83c.575,0,1.151,0,1.726,0,.348,0,.575-.2.577-.484a.51.51,0,0,0-.571-.5q-1.74-.007-3.479,0c-.361,0-.566.187-.567.489s.2.488.561.49c.584,0,1.169,0,1.753,0M.318,3.608a4.717,4.717,0,0,0,0,.549.41.41,0,0,0,.409.4q.985.015,1.97,0a.388.388,0,0,0,.4-.375,5.58,5.58,0,0,0,0-.577Z" transform="translate(26.249 18.433)" fill="#95d8b4"/>
  <path id="Path_3703" data-name="Path 3703" d="M.032.166c-.117-.111-.3-.2-.334-.337A.5.5,0,0,1-.173-.617C.37-.967.934-1.288,1.5-1.594A.363.363,0,0,1,2-1.421a.343.343,0,0,1-.066.493C1.351-.57.752-.241.159.1A.335.335,0,0,1,.08.117L.032.166" transform="translate(33.709 10.996)" fill="#95d8b4"/>
  <path id="Path_3704" data-name="Path 3704" d="M.222.116C.211.479-.087.694-.342.558c-.569-.3-1.129-.629-1.679-.967a.364.364,0,0,1-.093-.533.365.365,0,0,1,.52-.151c.551.3,1.095.616,1.63.943.1.062.149.211.185.267" transform="translate(22.346 10.51)" fill="#95d8b4"/>
  <path id="Path_3705" data-name="Path 3705" d="M.189.164A3.478,3.478,0,0,1-.147.024Q-.872-.388-1.592-.809c-.262-.154-.336-.375-.211-.593a.413.413,0,0,1,.612-.131c.508.286,1.012.579,1.516.875a.368.368,0,0,1,.193.486C.452-.036.3.058.189.164" transform="translate(35.222 22.807)" fill="#95d8b4"/>
  <path id="Path_3706" data-name="Path 3706" d="M.12.076c-.292,0-.583.006-.875,0a.4.4,0,0,1-.424-.427.392.392,0,0,1,.432-.39q.887-.007,1.776,0a.4.4,0,0,1,.427.4.4.4,0,0,1-.434.421c-.3.007-.6,0-.9,0" transform="translate(36.013 16.486)" fill="#95d8b4"/>
</svg>
