<svg id="Group_2653" data-name="Group 2653" xmlns="http://www.w3.org/2000/svg" width="46.835" height="46.836" viewBox="0 0 46.835 46.836">
  <path id="Path_3696" data-name="Path 3696" d="M2.158,4.316A23.417,23.417,0,0,0,25.576-19.1,23.418,23.418,0,0,0,2.158-42.52,23.419,23.419,0,0,0-21.26-19.1,23.418,23.418,0,0,0,2.158,4.316" transform="translate(21.26 42.519)" fill="#fff"/>
  <path id="Path_3707" data-name="Path 3707" d="M1.248,1.523V13.252h-13.16a.716.716,0,0,1-.344-.7c.01-2.943.006-5.885.006-8.829,0-.119,0-.239-.01-.358A7.815,7.815,0,0,1-11.9-.116a2.018,2.018,0,0,1-.193-.713c-.012-2.313.006-4.626-.012-6.938a7.639,7.639,0,0,1,1.116-4.054A6.131,6.131,0,0,1-5.381-15,6.793,6.793,0,0,1,1.062-8.215c.015,2.486.008,4.973,0,7.459a3.2,3.2,0,0,1-.188.714c.111.457.245,1.011.379,1.565m-3.9-3.6C-3.287-.124-4.139.719-5.465.738a2.4,2.4,0,0,1-1.5-.455A3.79,3.79,0,0,1-8.357-2.055a4.076,4.076,0,0,0-2.9,3.281,7.139,7.139,0,0,0-.055,1.621c.063.643.762.715,1.152,1.068a.931.931,0,0,1,.4.789c-.026.6-.007,1.209-.007,1.83h8.478c0-.6.021-1.184-.008-1.766a.849.849,0,0,1,.436-.864,9.92,9.92,0,0,0,.952-.682.426.426,0,0,0,.174-.275A10.067,10.067,0,0,0,.2,1.2,4.085,4.085,0,0,0-2.653-2.077m-2.876-8.7A5.825,5.825,0,0,1-7.167-8.951a6.15,6.15,0,0,1-2.194.976,19.01,19.01,0,0,0,.018,2.419A3.842,3.842,0,0,0-6.2-2.33,3.9,3.9,0,0,0-2.135-4.283c.666-1.171.438-2.438.478-3.686a5.941,5.941,0,0,1-3.872-2.8M.07-8.858c-.077-.3-.128-.593-.224-.867-.142-.408-.3-.813-.479-1.205A5.484,5.484,0,0,0-6.98-13.868a6.054,6.054,0,0,0-4.1,5.032,6.442,6.442,0,0,0,1.263-.012A4.828,4.828,0,0,0-6-12.006c.088-.237.191-.412.465-.413s.392.166.469.409A4.822,4.822,0,0,0,.07-8.858M-.77,12.312c-.264-.959-.517-1.9-.791-2.831-.023-.077-.189-.16-.29-.16-2.452-.009-4.9-.006-7.357-.012-.206,0-.275.076-.324.267-.214.839-.447,1.673-.67,2.509a1.216,1.216,0,0,0-.014.227ZM-11.157-7.839v6.575a5.426,5.426,0,0,1,2.14-1.582,5.62,5.62,0,0,1-1.075-1.9,8.047,8.047,0,0,1-.2-2.45c-.007-.777-.012-.785-.8-.681-.019,0-.036.02-.066.036m9.092,4.988a5.251,5.251,0,0,1,2.171,1.6V-7.87h-.84c.087,1.8.08,3.572-1.331,5.018m.314,10.364H-9.33v.845h7.579Zm-9.559,4.746.118.022c.291-1.6,1.077-3.1.9-4.794-.36-.18-.393-.228-.4-.628a13.809,13.809,0,0,1,.013-1.627c.061-.536-.23-.751-.638-.951ZM.2,12.317.25,12.3V4.316a.875.875,0,0,0-.63,1c.055.514.008,1.04.013,1.56,0,.256-.034.474-.31.582A.188.188,0,0,0-.77,7.6,7.491,7.491,0,0,0-.7,9.023c.228,1.011.531,2.006.8,3.007.026.1.064.191.1.286M-7.264-1.674A1.887,1.887,0,0,0-5.475-.214,1.876,1.876,0,0,0-3.782-1.669a5,5,0,0,1-3.482,0" transform="translate(36.22 24.571)" fill="#96319a"/>
  <path id="Path_3708" data-name="Path 3708" d="M.032,2.655A.663.663,0,0,1-.311,2.08C-.3-1.361-.349-4.8-.28-8.243a6,6,0,0,1,3.353-5.32c.076-.043.155-.078.231-.119a.714.714,0,0,0,.069-.052c-.055-.063-.106-.126-.162-.184A4.9,4.9,0,0,1,1.9-16.585a15.641,15.641,0,0,0-.524-1.629A7.743,7.743,0,0,1,1.1-22.288,4.757,4.757,0,0,1,4.853-25.94,5.952,5.952,0,0,1,10.738-24.4a5.692,5.692,0,0,1,1.6,3.649,10.278,10.278,0,0,1,.025,1.688c-.044.681-.169.756-.885.684a5.223,5.223,0,0,1-1.5,4.614c.411.257.825.468,1.189.748a6.107,6.107,0,0,1,2.5,5.054c.007,3.322,0,6.644.007,9.966a.678.678,0,0,1-.343.648ZM12.684-6.277c0-.729.061-1.448-.011-2.153a5.232,5.232,0,0,0-3.278-4.489.3.3,0,0,0-.431.115c-.6.834-1.224,1.658-1.841,2.485-.324.435-.62.433-.951-.009-.592-.79-1.2-1.572-1.76-2.381-.2-.281-.361-.279-.634-.154A5.4,5.4,0,0,0,1.15-10.351,8.073,8.073,0,0,0,.6-6.288H1.741c0-.406-.012-.786,0-1.165a.486.486,0,0,1,.5-.495.489.489,0,0,1,.455.5c.006.087,0,.174,0,.261v5.914h7.9v-.341q0-2.85,0-5.7c0-.4.189-.644.491-.637s.465.235.467.623c0,.345,0,.688,0,1.049ZM11.426-19.27a6.38,6.38,0,0,0-.553-3.289A4.788,4.788,0,0,0,6.78-25.191a4.244,4.244,0,0,0-4.886,4.3,8.574,8.574,0,0,0,.441,2.619,7.583,7.583,0,0,0,1.212-2.856c.1-.554.3-.681.829-.493,1.293.46,2.583.933,3.885,1.369,1.033.347,2.083.647,3.166.98M4.392-20.581c-.193.507-.351,1-.565,1.472a7.136,7.136,0,0,1-.747,1.364,1.463,1.463,0,0,0-.237,1.278A3.879,3.879,0,0,0,6.618-13.35a3.816,3.816,0,0,0,3.756-2.961,14.487,14.487,0,0,0,.138-1.94c.019-.231-.075-.311-.285-.378Q8.2-19.271,6.184-19.946c-.6-.2-1.2-.425-1.792-.636M1.758-5.3H.631V1.711H1.758Zm0,7.014M11.576,1.7H12.7v-7H11.576Zm0-7M6.186-.33H2.725V1.716H6.186Zm0,2.047M10.62-.306H7.148V1.731H10.62Zm-4.9-12.186.937,1.257c.324-.438.626-.845.931-1.257Z" transform="translate(9.685 35.168)" fill="#96319a"/>
</svg>
