<svg xmlns="http://www.w3.org/2000/svg" width="48.284" height="48.284" viewBox="0 0 48.284 48.284">
  <g id="Group_2072" data-name="Group 2072" transform="translate(-145.965 -106.248)">
    <g id="Group_1614" data-name="Group 1614" transform="translate(145.965 106.248)">
      <path id="Path_2249" data-name="Path 2249" d="M5.4,0A11.1,11.1,0,0,0-5.7,11.1V37.188a11.1,11.1,0,0,0,11.1,11.1H31.492a11.1,11.1,0,0,0,11.1-11.1V11.1A11.1,11.1,0,0,0,31.492,0Z" transform="translate(5.695)" fill="#ffce39"/>
    </g>
    <g id="Group_1615" data-name="Group 1615" transform="translate(157.421 142.618)">
      <path id="Path_2250" data-name="Path 2250" d="M0,0H12.627a17.284,17.284,0,0,0-.335,4.162H2.882A2.885,2.885,0,0,1,0,1.28Z" fill="#fff"/>
    </g>
    <g id="Group_1616" data-name="Group 1616" transform="translate(157.421 113.998)">
      <path id="Path_2251" data-name="Path 2251" d="M8.913,1.4V15.731L7.007,13.8a3.01,3.01,0,0,0-4.263,4.249l3.679,3.825a8.136,8.136,0,0,0-2.572,3.341H-9.4V1.4A2.885,2.885,0,0,1-6.516-1.479H6.031A2.885,2.885,0,0,1,8.913,1.4" transform="translate(9.398 1.479)" fill="#fff"/>
    </g>
    <g id="Group_1617" data-name="Group 1617" transform="translate(170.609 126.791)">
      <path id="Path_2252" data-name="Path 2252" d="M5.848,5.018,4.06,13.926a.963.963,0,0,1-.943.772H-5.142a14.457,14.457,0,0,1,.4-4.162,7.536,7.536,0,0,1,1.35-2.741A4.857,4.857,0,0,1-1.663,6.376a.951.951,0,0,0,.351-1.563L-5.834.112a1.089,1.089,0,0,1,.756-1.872,1.074,1.074,0,0,1,.766.316S-2.88.024.284,3.188A.96.96,0,0,0,1.642,1.83L.876,1.065V-5.291c2.985,2.983,2.9,2.884,3.2,3.248A8.408,8.408,0,0,1,5.848,5.018" transform="translate(6.167 5.291)" fill="#fff"/>
    </g>
  </g>
</svg>
