<svg xmlns="http://www.w3.org/2000/svg" width="31.862" height="34.015" viewBox="0 0 31.862 34.015">
  <g id="Group_3130" data-name="Group 3130" transform="translate(6.817 13.349)">
    <path id="Path_4226" data-name="Path 4226" d="M0,0A2.422,2.422,0,0,1-2.436,2.409,2.423,2.423,0,0,1-4.873,0,2.423,2.423,0,0,1-2.436-2.409,2.422,2.422,0,0,1,0,0ZM15.25-.357a2.422,2.422,0,0,1-2.436,2.409A2.423,2.423,0,0,1,10.377-.357a2.423,2.423,0,0,1,2.437-2.409A2.423,2.423,0,0,1,15.25-.357ZM22.74-10.44A2.422,2.422,0,0,1,20.3-8.031a2.423,2.423,0,0,1-2.437-2.409A2.423,2.423,0,0,1,20.3-12.849,2.422,2.422,0,0,1,22.74-10.44ZM7.219-6.871A2.422,2.422,0,0,1,4.783-4.462,2.423,2.423,0,0,1,2.346-6.871,2.423,2.423,0,0,1,4.783-9.28,2.423,2.423,0,0,1,7.219-6.871ZM-.632-1.7l3.7-3.57m3.7-.178,4.145,3.579m3.616-.188,4.06-6.782m-24.906,29H24.545M-3.97,20.077V8.656H.9V20.077m9.385.089V8.745H15.16V20.166m-12,0V2.945H8.031v9.9m0,3.034v4.194m9.385.089V.446h4.873V3.391m0,3.034V20.166" fill="none" stroke="#0fae4d" stroke-linecap="round" stroke-linejoin="round" stroke-width="1"/>
  </g>
</svg>
