<svg xmlns="http://www.w3.org/2000/svg" width="37.73" height="34.016" viewBox="0 0 37.73 34.016">
  <g id="Group_3132" data-name="Group 3132" transform="translate(26.712 8.918)">
    <path id="Path_4228" data-name="Path 4228" d="M0,0H0A2.531,2.531,0,0,1-2.572-2.488V-4.306A2.531,2.531,0,0,1,0-6.794H0A2.531,2.531,0,0,1,2.572-4.306v1.818A2.531,2.531,0,0,1,0,0ZM2.479-3.5a9.383,9.383,0,0,1-4.958-.812M-1.155.13v.918l-1.452.281a4.015,4.015,0,0,0-2.122,1.1M1.155.13v.918l1.452.281A3.425,3.425,0,0,1,5.524,3.986V6.458M-16.033,0h0a2.531,2.531,0,0,0,2.572-2.488V-4.306a2.531,2.531,0,0,0-2.572-2.488A2.531,2.531,0,0,0-18.6-4.306v1.818A2.531,2.531,0,0,0-16.033,0Zm-2.479-3.5a9.387,9.387,0,0,0,4.959-.812M-14.878.13v.918l1.452.281a4.015,4.015,0,0,1,2.122,1.1M-17.187.13v.918l-1.452.281a3.423,3.423,0,0,0-2.917,2.657V6.015m13.8-5.2h0A3.725,3.725,0,0,1-11.539-2.85V-4.756A3.726,3.726,0,0,1-7.754-8.418,3.726,3.726,0,0,1-3.969-4.756V-2.85A3.725,3.725,0,0,1-7.754.812Zm-3.544-4.8s3.526.2,4.485-1.57a5.209,5.209,0,0,0,2.385,1.5M-9.374.887V2.175l-2.037.395a4.755,4.755,0,0,0-4.112,3.888V9.677M-6.134.887V2.175L-4.1,2.57c2.431.473,4.13,2.221,4.13,4.253V9.677M-9.076,24.6h-8.375V21.4h8.375Zm-7.377-5.416s-1.383-2.463-2.305-2.984a26.651,26.651,0,0,1-4.687-3.568,19.543,19.543,0,0,1-2-3.642c-.153-.52-.691-2.453-.691-2.453s-.231-.966.23-1.189,1.076-.446,1.46.669a6.423,6.423,0,0,0,1.167,2.453,11.415,11.415,0,0,0,3.5,2.777m2.555,2.426c-.33-.437-3.159-3.621-3.159-3.621s-.562-.83-.209-1.193.849-.779,1.609.139a30.3,30.3,0,0,0,2.835,2.817,17.664,17.664,0,0,0,4.072,2.081c2.459.892,1.82,5.411,1.82,5.411M-6.617,24.6H1.758V21.4H-6.617Zm7.53-5.416S2.142,16.719,3.064,16.2A26.614,26.614,0,0,0,7.751,12.63a19.485,19.485,0,0,0,2-3.642c.153-.52.691-2.453.691-2.453s.231-.966-.23-1.189S9.134,4.9,8.75,6.015A6.408,6.408,0,0,1,7.583,8.468a11.4,11.4,0,0,1-3.5,2.777M1.527,13.671c.331-.437,3.159-3.621,3.159-3.621s.562-.83.209-1.193S4.046,8.078,3.286,9A30.426,30.426,0,0,1,.452,11.813a17.686,17.686,0,0,1-4.073,2.081c-2.459.892-1.82,5.411-1.82,5.411" fill="none" stroke="#ffce39" stroke-linecap="round" stroke-linejoin="round" stroke-width="1"/>
  </g>
</svg>
