<svg xmlns="http://www.w3.org/2000/svg" width="48.284" height="48.285" viewBox="0 0 48.284 48.285">
  <g id="Group_2059" data-name="Group 2059" transform="translate(-47.749 -395.248)">
    <g id="Group_1610" data-name="Group 1610" transform="translate(47.749 395.248)">
      <path id="Path_2245" data-name="Path 2245" d="M5.4,0a11.1,11.1,0,0,0-11.1,11.1V37.189a11.1,11.1,0,0,0,11.1,11.1H31.492a11.1,11.1,0,0,0,11.1-11.1V11.1A11.1,11.1,0,0,0,31.492,0Z" transform="translate(5.695)" fill="#ffce39"/>
    </g>
    <g id="Group_1611" data-name="Group 1611" transform="translate(62.966 402.417)">
      <path id="Path_2246" data-name="Path 2246" d="M8.711,4.378A8.982,8.982,0,0,0-.24-4.616,8.939,8.939,0,0,0-6.57-1.951a8.966,8.966,0,0,0,0,12.659A8.9,8.9,0,0,0-.24,13.329,8.945,8.945,0,0,0,8.711,4.378M.735,9.325v1.1a1,1,0,0,1-.994,1,1,1,0,0,1-1-1V9.313a2.969,2.969,0,0,1-1.588-1.3A.992.992,0,0,1-2.48,6.657a.99.99,0,0,1,1.358.362,1,1,0,0,0,.863.5,1,1,0,0,0,.994-1,1,1,0,0,0-.994-.994A2.988,2.988,0,0,1-3.244,2.544a2.98,2.98,0,0,1,1.989-2.8V-1.393a.993.993,0,0,1,1-.994.993.993,0,0,1,.994.994v1.15a2.957,2.957,0,0,1,1.588,1.3.994.994,0,1,1-1.72,1,1,1,0,0,0-.861-.5,1,1,0,0,0-1,.994,1,1,0,0,0,1,1A2.987,2.987,0,0,1,2.724,6.523a2.981,2.981,0,0,1-1.989,2.8" transform="translate(9.185 4.616)" fill="#fff"/>
    </g>
    <g id="Group_1612" data-name="Group 1612" transform="translate(72.952 410.506)">
      <path id="Path_2247" data-name="Path 2247" d="M6.777,0A1.989,1.989,0,0,0,4.788,1.989v9.775a.994.994,0,0,1-.29.7l-5.44,5.44a.992.992,0,0,1-1.407,0,.99.99,0,0,1,0-1.4L1.222,12.93a1.992,1.992,0,0,0,0-2.813,1.988,1.988,0,0,0-2.813,0l-4.1,4.1a4.97,4.97,0,0,0-1.457,3.517v7.131a.993.993,0,0,0,.994.994H-.184a.993.993,0,0,0,.994-.994v-2.5l6.5-6.5a4.973,4.973,0,0,0,1.457-3.517V1.989A1.989,1.989,0,0,0,6.777,0" transform="translate(7.146)" fill="#fff"/>
    </g>
    <path id="Path_2248" data-name="Path 2248" d="M5.042,4.924A1.989,1.989,0,0,0,2.228,7.738L5.8,11.309a.993.993,0,1,1-1.4,1.4l-5.442-5.44a1,1,0,0,1-.29-.7V-3.2A1.989,1.989,0,0,0-3.327-5.192,1.989,1.989,0,0,0-5.316-3.2V7.153A4.973,4.973,0,0,0-3.859,10.67l6.5,6.5v2.5a.993.993,0,0,0,.994.994H9.6a.993.993,0,0,0,.994-.994V12.54A4.976,4.976,0,0,0,9.141,9.024Z" transform="translate(60.233 415.697)" fill="#fff"/>
  </g>
</svg>
