<svg xmlns="http://www.w3.org/2000/svg" width="37.734" height="34.02" viewBox="0 0 37.734 34.02"><g transform="translate(0.52 0.5)"><path d="M0,0H0A2.532,2.532,0,0,1-2.569-2.487V-4.306A2.532,2.532,0,0,1,0-6.794H0A2.532,2.532,0,0,1,2.575-4.306v1.818A2.532,2.532,0,0,1,0,0ZM2.482-3.5a9.384,9.384,0,0,1-4.959-.812M-1.152.131v.918L-2.6,1.33a4.016,4.016,0,0,0-2.122,1.1M1.158.131v.918L2.61,1.33A3.426,3.426,0,0,1,5.528,3.987V6.46M-16.032,0h0A2.531,2.531,0,0,0-13.46-2.487V-4.306a2.531,2.531,0,0,0-2.572-2.488A2.531,2.531,0,0,0-18.6-4.306v1.818A2.531,2.531,0,0,0-16.032,0Zm-2.479-3.5a9.388,9.388,0,0,0,4.96-.812M-14.877.131v.918l1.452.281a4.016,4.016,0,0,1,2.122,1.1m-5.884-2.3v.918l-1.452.281a3.423,3.423,0,0,0-2.917,2.657V6.017m13.8-5.2h0a3.725,3.725,0,0,1-3.785-3.662V-4.756A3.726,3.726,0,0,1-7.752-8.418,3.726,3.726,0,0,1-3.967-4.756v1.906A3.725,3.725,0,0,1-7.752.813Zm-3.544-4.8s3.526.2,4.486-1.57a5.21,5.21,0,0,0,2.385,1.5M-9.372.888V2.176l-2.037.4A4.756,4.756,0,0,0-15.522,6.46V9.679M-6.132.888V2.176l2.037.4c2.431.473,4.13,2.221,4.13,4.253V9.679M-9.074,24.6H-17.45v-3.2h8.376Zm-7.378-5.417s-1.383-2.463-2.305-2.984a26.654,26.654,0,0,1-4.688-3.568,19.545,19.545,0,0,1-2-3.642c-.153-.52-.691-2.453-.691-2.453s-.231-.966.23-1.189,1.076-.446,1.46.669A6.424,6.424,0,0,0-23.277,8.47a11.416,11.416,0,0,0,3.5,2.777m2.555,2.426c-.33-.437-3.159-3.621-3.159-3.621s-.562-.83-.209-1.193.849-.779,1.609.139a30.3,30.3,0,0,0,2.835,2.817A17.666,17.666,0,0,0-12.071,13.9c2.459.892,1.82,5.412,1.82,5.412M-6.615,24.6H1.761v-3.2H-6.615ZM.916,19.185S2.145,16.722,3.067,16.2a26.617,26.617,0,0,0,4.688-3.568,19.487,19.487,0,0,0,2-3.642c.153-.52.691-2.453.691-2.453s.231-.966-.23-1.189-1.076-.446-1.46.669A6.409,6.409,0,0,1,7.587,8.47a11.4,11.4,0,0,1-3.5,2.777M1.53,13.673c.331-.437,3.159-3.621,3.159-3.621s.562-.83.209-1.193S4.049,8.08,3.289,9A30.429,30.429,0,0,1,.455,11.815,17.688,17.688,0,0,1-3.618,13.9c-2.459.892-1.82,5.412-1.82,5.412" transform="translate(26.192 8.418)" fill="none" stroke="#fff" stroke-linecap="round" stroke-linejoin="round" stroke-width="1"/></g></svg>