<svg xmlns="http://www.w3.org/2000/svg" width="29.704" height="34.016" viewBox="0 0 29.704 34.016">
  <g id="Group_3134" data-name="Group 3134" transform="translate(16.947 3.463)">
    <path id="Path_4230" data-name="Path 4230" d="M0,0A10.092,10.092,0,0,0-1.758-.154,10.033,10.033,0,0,0-4.408.2M-10,4.115a10.373,10.373,0,0,0-1.93,6.048,13.7,13.7,0,0,0,2.47,6.863c.321.507.662,1.007,1.017,1.5a32.3,32.3,0,0,0,3.988,4.515H1.219c3.487-3.1,7.2-8.492,7.2-12.873,0-.318-.015-.633-.042-.944M-4.309,25.593a.711.711,0,0,0-.7.714v.773a.711.711,0,0,0,.7.713H1.144a.711.711,0,0,0,.7-.713v-.773a.711.711,0,0,0-.7-.714m-5.16,2.587v.059a1.807,1.807,0,0,0,1.789,1.814H-.761a1.807,1.807,0,0,0,1.788-1.814V28.18a1.765,1.765,0,0,0-.042-.387H-3.974A1.828,1.828,0,0,0-4.016,28.18Zm2.659-2.587H-6.3a.71.71,0,0,1-.7-.713V23.75a.71.71,0,0,1,.7-.714H2.845a.711.711,0,0,1,.7.714v1.13a.711.711,0,0,1-.7.713H.558M-6.186,2.879H-8.825V.2h2.639ZM-10.7-.689h-2.228V-2.948H-10.7Zm-3.342,3.925h-1.876v-1.9h1.876Zm-.293,13.081h-2.111V14.176h2.111Zm3.049,5.292h-2.4V19.171h2.4Zm5.8-10.287H-7.945v-2.5h2.463Zm1.466-4.875H-5.951V4.485h1.935ZM1.262,11.8H-.966V9.538H1.262ZM-2.9,15.841H-5.013V13.7H-2.9Zm7.213-.178H2.083V13.4H4.311ZM9.3,23.69H6.422V20.776H9.3ZM12.051,18.7H9.7V16.318h2.346ZM10.791,6.134H3.227v-7.67h7.564ZM1.819.069H3.226M1.819,2.388H3.226M1.819,4.707H3.226M4.575,7.562V6.134M6.862,7.562V6.134M9.149,7.562V6.134m1.7-6.065h1.408M10.849,2.388h1.408M10.849,4.707h1.408M4.633-1.536V-2.963M6.92-1.536V-2.963M9.207-1.536V-2.963M8.973,4.261H5.1V.337h3.87ZM-3.787,22.616V16.032m2.566,6.584V19.324m0-2.069v-.938L.054,15.025V11.793m3.172,3.87v1.592L1,19.516v3.1" fill="none" stroke="#95d8b4" stroke-linecap="round" stroke-linejoin="round" stroke-width="1"/>
  </g>
</svg>
