<svg xmlns="http://www.w3.org/2000/svg" width="48.533" height="48.533" viewBox="0 0 48.533 48.533">
  <g id="Group_2065" data-name="Group 2065" transform="translate(-103.75 -148.568)">
    <g id="Group_1605" data-name="Group 1605" transform="translate(103.75 148.568)">
      <path id="Path_2240" data-name="Path 2240" d="M5.458,0A11.154,11.154,0,0,0-5.7,11.153V37.38A11.154,11.154,0,0,0,5.458,48.533H31.683A11.154,11.154,0,0,0,42.838,37.38V11.153A11.154,11.154,0,0,0,31.683,0Z" transform="translate(5.695)" fill="#ffce39"/>
    </g>
    <g id="Group_1606" data-name="Group 1606" transform="translate(113.815 156.161)">
      <path id="Path_2241" data-name="Path 2241" d="M10.9,3.537V.487A4.19,4.19,0,0,0,6.726-3.69H-7.2A4.19,4.19,0,0,0-11.376.487V25.551A4.19,4.19,0,0,0-7.2,29.728H6.726A4.19,4.19,0,0,0,10.9,25.551V21.8a4.474,4.474,0,0,1-2.785.962v2.785a1.4,1.4,0,0,1-1.392,1.392H-7.2a1.4,1.4,0,0,1-1.392-1.392V.487A1.4,1.4,0,0,1-7.2-.905h.7A1.4,1.4,0,0,1-5.109.487,1.4,1.4,0,0,0-3.717,1.88H3.245A1.4,1.4,0,0,0,4.638.487,1.4,1.4,0,0,1,6.03-.905h.7A1.4,1.4,0,0,1,8.118.487V3.272a14.253,14.253,0,0,1,2.785.264" transform="translate(11.376 3.69)" fill="#fff"/>
    </g>
    <g id="Group_1607" data-name="Group 1607" transform="translate(130.382 174.61)">
      <path id="Path_2242" data-name="Path 2242" d="M1.433,0A3.126,3.126,0,0,0-1.495,2.05L.082,3.864a.659.659,0,0,0,.057.072,1.716,1.716,0,0,0,2.589,0,.679.679,0,0,0,.059-.072L4.361,2.05A3.126,3.126,0,0,0,1.433,0" transform="translate(1.495)" fill="#fff"/>
    </g>
    <g id="Group_1608" data-name="Group 1608" transform="translate(127.17 170.084)">
      <path id="Path_2243" data-name="Path 2243" d="M3,0a7.988,7.988,0,0,0-6.14,2.877l1.737,2a5.192,5.192,0,0,1,8.8,0l1.737-2A7.991,7.991,0,0,0,3,0" transform="translate(3.135)" fill="#fff"/>
    </g>
    <g id="Group_1609" data-name="Group 1609" transform="translate(124.404 165.21)">
      <path id="Path_2244" data-name="Path 2244" d="M.68,3.017a10.047,10.047,0,0,1,15.033,0l1.132-1.3A1.045,1.045,0,0,0,16.778.271,12.479,12.479,0,0,0-.385.271,1.045,1.045,0,0,0-.454,1.713Z" transform="translate(0.709 3.148)" fill="#fff"/>
    </g>
  </g>
</svg>
