<svg xmlns="http://www.w3.org/2000/svg" width="29.703" height="34.014" viewBox="0 0 29.703 34.014"><g transform="translate(0.5 0.5)"><path d="M0,0A10.091,10.091,0,0,0-1.759-.154,10.033,10.033,0,0,0-4.409.2M-10,4.115a10.372,10.372,0,0,0-1.93,6.048,13.7,13.7,0,0,0,2.47,6.863c.321.507.662,1.007,1.017,1.495a32.3,32.3,0,0,0,3.988,4.515H1.218c3.487-3.1,7.2-8.492,7.2-12.872,0-.318-.015-.633-.042-.944M-4.31,25.592a.711.711,0,0,0-.7.714v.773a.711.711,0,0,0,.7.713H1.143a.711.711,0,0,0,.7-.713v-.773a.711.711,0,0,0-.7-.714m-5.16,2.587v.059a1.807,1.807,0,0,0,1.789,1.814H-.762a1.806,1.806,0,0,0,1.788-1.814v-.059a1.765,1.765,0,0,0-.042-.387H-3.975A1.828,1.828,0,0,0-4.017,28.179Zm2.659-2.587H-6.3a.71.71,0,0,1-.7-.713v-1.13a.71.71,0,0,1,.7-.714H2.844a.711.711,0,0,1,.7.714v1.13a.711.711,0,0,1-.7.713H.557M-6.186,2.879H-8.825V.2h2.639ZM-10.7-.689h-2.228V-2.948H-10.7Zm-3.342,3.925h-1.876v-1.9h1.876Zm-.293,13.08h-2.111V14.175h2.111Zm3.049,5.292h-2.4V19.17h2.4Zm5.8-10.287H-7.945v-2.5h2.463Zm1.466-4.875H-5.951V4.485h1.935ZM1.261,11.8H-.967V9.537H1.261ZM-2.9,15.84H-5.014V13.7H-2.9Zm7.213-.178H2.082V13.4H4.31Zm4.984,8.027H6.421V20.775H9.294Zm2.756-4.994H9.7V16.317H12.05ZM10.79,6.134H3.226v-7.67H10.79ZM1.818.069H3.225M1.818,2.388H3.225M1.818,4.707H3.225M4.574,7.561V6.134M6.861,7.561V6.134M9.148,7.561V6.134m1.7-6.065h1.408M10.848,2.388h1.408M10.848,4.707h1.408M4.632-1.536V-2.963M6.919-1.536V-2.963M9.206-1.536V-2.963M8.972,4.261H5.1V.337h3.87ZM-3.788,22.615V16.031m2.566,6.584V19.323m0-2.069v-.938L.053,15.024V11.792m3.172,3.87v1.592L1,19.515v3.1" transform="translate(16.447 2.963)" fill="none" stroke="#fff" stroke-linecap="round" stroke-linejoin="round" stroke-width="1"/></g></svg>