<svg xmlns="http://www.w3.org/2000/svg" width="32.656" height="33.574" viewBox="0 0 32.656 33.574"><g transform="translate(0.5 0.563)"><path d="M.183,0a8.914,8.914,0,0,0,0,2.74c.271.731,1.1.923,2.688.731s2.671-.579,3.242.836a2.024,2.024,0,0,1-.7,2.764c-.8.562-1.587.45-1.97,1.543s1.35,1.093,1.462,1.606.255,1.807-.54,2.157a12.582,12.582,0,0,1-3.063.4L.391,14.207l.092,1.849H5.1s1.2-.049,1.263,1.494M18.487,7.392a38.731,38.731,0,0,1-4.144,0c-2.007-.128-2.461.549-2.461.549-1.353,1.642-1.127,2.279-1,4.079s3.306,1.351,4.594,1.357a1.749,1.749,0,0,1,1.666.83l2.279,3.565m-28.9-7.937a1.912,1.912,0,0,0,1.39,1.736c1.418.514,2.771.989,3.78.687L-.84,15.735v2.547A5.507,5.507,0,0,1,.609,20.1c.29.856-.218,2.914.545,3.814s3.211,1.38,3.211,1.38m9.06,7.041S6.913,22.124,21.2,17.651C21.2,17.651,26.205,30.536,13.425,32.336Zm0,0,5.086-9.644m1.657,1.835-2.963.741-.732-3m1.87,5.41-2.963.74-.732-3m-1.462-3.155C11.839,20.5,9.481,18.825,5.535,17.59c0,0-4.99,12.85,7.724,14.678m.052.007L8.224,22.632M6.568,24.467l2.963.74.732-3m-1.87,5.41,2.962.741.733-3" transform="translate(9.475)" fill="none" stroke="#fff" stroke-linecap="round" stroke-linejoin="round" stroke-width="1"/></g></svg>