<svg xmlns="http://www.w3.org/2000/svg" width="48.533" height="48.533" viewBox="0 0 48.533 48.533">
  <g id="Group_2066" data-name="Group 2066" transform="translate(-153.965 -152.568)">
    <g id="Group_1591" data-name="Group 1591" transform="translate(153.965 152.568)">
      <path id="Path_2226" data-name="Path 2226" d="M5.458,0A11.154,11.154,0,0,0-5.7,11.153V37.38A11.154,11.154,0,0,0,5.458,48.533H31.683A11.154,11.154,0,0,0,42.838,37.38V11.153A11.154,11.154,0,0,0,31.683,0Z" transform="translate(5.695)" fill="#ffce39"/>
    </g>
    <g id="Group_1592" data-name="Group 1592" transform="translate(163.009 158.766)">
      <path id="Path_2227" data-name="Path 2227" d="M14.828,8.307,7.7,4.2v-8a.624.624,0,0,0-.313-.544L.05-8.584a.625.625,0,0,0-.625,0l-7.34,4.232a.622.622,0,0,0-.311.544V4.318l-6.933,3.989a.628.628,0,0,0-.313.544v8.476a.631.631,0,0,0,.313.539L-7.821,22.1a.636.636,0,0,0,.313.088A.623.623,0,0,0-7.2,22.1l7.027-4.058L6.864,22.1a.6.6,0,0,0,.627,0l7.338-4.238a.631.631,0,0,0,.313-.539V8.852a.628.628,0,0,0-.313-.544M-.263-7.321,6.452-3.445V4.306L-.169,8.151-6.976,4.212V-3.445ZM-7.507,20.841l-6.713-3.876V9.214L-7.6,5.393-.794,9.326v7.64Zm21.4-3.876L7.177,20.841.456,16.965V9.214L7.177,5.338,13.89,9.214Z" transform="translate(15.472 8.668)" fill="#fff"/>
    </g>
    <g id="Group_1593" data-name="Group 1593" transform="translate(188.157 168.404)">
      <path id="Path_2228" data-name="Path 2228" d="M1.031.911a2.1,2.1,0,0,1,.625,1.494.626.626,0,0,0,1.251,0A3.352,3.352,0,0,0-.438-.951H-.451a.625.625,0,0,0-.625.625A.625.625,0,0,0-.451.3,2.1,2.1,0,0,1,1.031.911" transform="translate(1.076 0.951)" fill="#fff"/>
    </g>
    <g id="Group_1594" data-name="Group 1594" transform="translate(188.152 166.253)">
      <path id="Path_2229" data-name="Path 2229" d="M.306,0a.625.625,0,1,0,0,1.249A4.258,4.258,0,0,1,4.563,5.507a.625.625,0,1,0,1.249,0A5.507,5.507,0,0,0,.306,0" transform="translate(0.319)" fill="#fff"/>
    </g>
    <g id="Group_1595" data-name="Group 1595" transform="translate(188.152 164.191)">
      <path id="Path_2230" data-name="Path 2230" d="M.306,0a.625.625,0,0,0,0,1.249A6.256,6.256,0,0,1,4.775,3.126,6.367,6.367,0,0,1,6.651,7.595a.625.625,0,1,0,1.249,0,7.594,7.594,0,0,0-2.219-5.35A7.505,7.505,0,0,0,.306,0" transform="translate(0.319 0)" fill="#fff"/>
    </g>
    <g id="Group_1596" data-name="Group 1596" transform="translate(164.303 168.404)">
      <path id="Path_2231" data-name="Path 2231" d="M1.643,0A3.351,3.351,0,0,0-1.714,3.345v.012a.625.625,0,0,0,.625.625.625.625,0,0,0,.625-.625A2.115,2.115,0,0,1,1.643,1.249.625.625,0,0,0,1.643,0" transform="translate(1.714 0)" fill="#fff"/>
    </g>
    <g id="Group_1597" data-name="Group 1597" transform="translate(162.153 166.253)">
      <path id="Path_2232" data-name="Path 2232" d="M.611,2.7A4.257,4.257,0,0,1,4.869-1.563a.625.625,0,0,0,.625-.625.625.625,0,0,0-.625-.625A5.507,5.507,0,0,0-.638,2.7a.625.625,0,0,0,.625.625A.625.625,0,0,0,.611,2.7" transform="translate(0.638 2.812)" fill="#fff"/>
    </g>
    <g id="Group_1598" data-name="Group 1598" transform="translate(160.089 164.191)">
      <path id="Path_2233" data-name="Path 2233" d="M3.705.611A.625.625,0,0,0,4.33-.013a.625.625,0,0,0-.625-.625,7.487,7.487,0,0,0-5.35,2.219,7.593,7.593,0,0,0-2.221,5.35.628.628,0,0,0,.627.625.625.625,0,0,0,.625-.625A6.373,6.373,0,0,1-.74,2.462,6.255,6.255,0,0,1,3.705.611" transform="translate(3.866 0.638)" fill="#fff"/>
    </g>
    <g id="Group_1599" data-name="Group 1599" transform="translate(175.693 188.676)">
      <path id="Path_2234" data-name="Path 2234" d="M2.4.5A.624.624,0,0,0,2.33-.376a.626.626,0,0,0-.813,0,2.17,2.17,0,0,1-2.989,0,.624.624,0,0,0-.881.069.626.626,0,0,0,0,.813A3.363,3.363,0,0,0,2.4.5" transform="translate(2.503 0.527)" fill="#fff"/>
    </g>
    <g id="Group_1600" data-name="Group 1600" transform="translate(174.141 190.161)">
      <path id="Path_2235" data-name="Path 2235" d="M.089.09a.624.624,0,0,0,0,.881,5.508,5.508,0,0,0,7.789,0h0A.625.625,0,0,0,6.994.087l0,0A4.256,4.256,0,0,1,.976.09a.625.625,0,0,0-.883,0l0,0" transform="translate(0.093 0.094)" fill="#fff"/>
    </g>
    <g id="Group_1601" data-name="Group 1601" transform="translate(172.682 191.619)">
      <path id="Path_2236" data-name="Path 2236" d="M4.9.089a6.327,6.327,0,0,1-8.94,0,.623.623,0,0,0-.883,0,.623.623,0,0,0,0,.883,7.575,7.575,0,0,0,10.7,0A.625.625,0,1,0,4.9.089" transform="translate(5.109 0.093)" fill="#fff"/>
    </g>
    <g id="Group_1602" data-name="Group 1602" transform="translate(173.31 164.782)">
      <path id="Path_2237" data-name="Path 2237" d="M1.879.485a1.315,1.315,0,0,0-.36-.533A1.693,1.693,0,0,0,.9-.387,2.979,2.979,0,0,0,0-.506a2.6,2.6,0,0,0-1.077.227A3.22,3.22,0,0,0-1.961.3l.635.891q.062-.059.182-.159a2.124,2.124,0,0,1,.286-.2A2.149,2.149,0,0,1-.488.665,1.247,1.247,0,0,1-.055.593.884.884,0,0,1,.477.747a.609.609,0,0,1,.213.531.8.8,0,0,1-.076.339A1.608,1.608,0,0,1,.4,1.952,4.514,4.514,0,0,1,.082,2.3c-.119.116-.249.241-.386.372-.178.172-.356.343-.537.515a4.052,4.052,0,0,0-.486.554,2.757,2.757,0,0,0-.347.638,2.084,2.084,0,0,0-.133.756v.206a1.339,1.339,0,0,0,.018.239H2.175V4.506H-.383a.745.745,0,0,1,.133-.219C-.177,4.2-.1,4.1,0,4s.188-.2.288-.3.194-.19.278-.27c.166-.155.335-.317.507-.49A4.919,4.919,0,0,0,1.533,2.4a2.786,2.786,0,0,0,.333-.58,1.561,1.561,0,0,0,.129-.627A2.051,2.051,0,0,0,1.879.485m5.1.284a3.412,3.412,0,0,1,.631.253L7.994-.052c-.047-.027-.121-.069-.227-.119a2.827,2.827,0,0,0-.4-.151A4.663,4.663,0,0,0,6.02-.506,3.275,3.275,0,0,0,4.856-.3,2.672,2.672,0,0,0,3.908.3a2.872,2.872,0,0,0-.635.973A3.515,3.515,0,0,0,3.043,2.6a3.78,3.78,0,0,0,.21,1.312,2.693,2.693,0,0,0,.6.971,2.523,2.523,0,0,0,.93.6,3.411,3.411,0,0,0,1.214.206,6.864,6.864,0,0,0,1.312-.106,5.237,5.237,0,0,0,.774-.2V2.437H6.74V4.506a1.775,1.775,0,0,1-.278.033c-.106.006-.233.01-.382.01a1.691,1.691,0,0,1-.721-.143,1.4,1.4,0,0,1-.515-.4,1.748,1.748,0,0,1-.309-.615,2.85,2.85,0,0,1-.1-.793,2.205,2.205,0,0,1,.417-1.42A1.631,1.631,0,0,1,6.2.661a2.665,2.665,0,0,1,.777.108" transform="translate(1.961 0.506)" fill="#fff"/>
    </g>
    <g id="Group_1603" data-name="Group 1603" transform="translate(165.76 177.721)">
      <path id="Path_2238" data-name="Path 2238" d="M1.371,2.971a2.059,2.059,0,0,0,.742-.4,1.546,1.546,0,0,0,.429-.6,2.04,2.04,0,0,0,.137-.76,1.569,1.569,0,0,0-.253-.9A1.536,1.536,0,0,0,1.71-.247a1.311,1.311,0,0,0,.533-.5,1.311,1.311,0,0,0,.2-.682,1.8,1.8,0,0,0-.121-.664,1.434,1.434,0,0,0-.368-.531,1.7,1.7,0,0,0-.631-.351A2.9,2.9,0,0,0,.414-3.1a2.752,2.752,0,0,0-.535.051A3.938,3.938,0,0,0-.6-2.92a3.145,3.145,0,0,0-.407.172c-.123.063-.229.123-.321.18l.454.934A2.915,2.915,0,0,1-.3-1.907a2.006,2.006,0,0,1,.682-.112,1.1,1.1,0,0,1,.288.039.785.785,0,0,1,.249.116.638.638,0,0,1,.176.2.567.567,0,0,1,.069.282.7.7,0,0,1-.082.356A.615.615,0,0,1,.86-.8a.92.92,0,0,1-.313.116,1.853,1.853,0,0,1-.364.035H-.383V.376h.5a3.124,3.124,0,0,1,.5.037A1.274,1.274,0,0,1,1.025.55.778.778,0,0,1,1.3.809a.733.733,0,0,1,.1.39.736.736,0,0,1-.274.6,1.37,1.37,0,0,1-.868.223A2.925,2.925,0,0,1-.61,1.915c-.231-.071-.423-.139-.572-.2l-.249,1.063a2.281,2.281,0,0,0,.309.112c.131.041.278.078.439.112a4.791,4.791,0,0,0,.5.082A4.3,4.3,0,0,0,.3,3.112a3.592,3.592,0,0,0,1.069-.141m6.212-4.8a3.357,3.357,0,0,1,.631.253L8.6-2.646c-.045-.027-.121-.069-.227-.119a2.739,2.739,0,0,0-.4-.151,5.07,5.07,0,0,0-.584-.127A4.669,4.669,0,0,0,6.628-3.1a3.26,3.26,0,0,0-1.163.206,2.655,2.655,0,0,0-.948.605,2.815,2.815,0,0,0-.635.973A3.515,3.515,0,0,0,3.649.006,3.8,3.8,0,0,0,3.861,1.32a2.7,2.7,0,0,0,.6.969,2.547,2.547,0,0,0,.932.6A3.368,3.368,0,0,0,6.6,3.1a6.861,6.861,0,0,0,1.312-.108,5.2,5.2,0,0,0,.772-.2V-.157H7.349V1.912a1.592,1.592,0,0,1-.28.033c-.106.006-.233.01-.382.01a1.721,1.721,0,0,1-.721-.141,1.424,1.424,0,0,1-.515-.4A1.752,1.752,0,0,1,5.143.8a2.874,2.874,0,0,1-.1-.8,2.209,2.209,0,0,1,.417-1.42,1.626,1.626,0,0,1,1.351-.519,2.642,2.642,0,0,1,.776.108" transform="translate(1.431 3.1)" fill="#fff"/>
    </g>
    <g id="Group_1604" data-name="Group 1604" transform="translate(180.432 177.721)">
      <path id="Path_2239" data-name="Path 2239" d="M1.256,1.814H-.092A6.646,6.646,0,0,1,.543.759q.379-.514.713-.952ZM1.3-1.756a10.422,10.422,0,0,0-.772.868c-.259.319-.5.648-.734.983s-.443.66-.631.977-.347.6-.472.854v.936H1.256v1.33H2.509V2.862h.635V1.814H2.509v-3.57ZM7.755-.618a3.357,3.357,0,0,1,.631.253l.386-1.073c-.045-.027-.121-.069-.227-.119a2.827,2.827,0,0,0-.4-.151,5.07,5.07,0,0,0-.584-.127,4.676,4.676,0,0,0-.76-.057,3.257,3.257,0,0,0-1.161.206,2.655,2.655,0,0,0-.948.605,2.837,2.837,0,0,0-.636.975,3.5,3.5,0,0,0-.231,1.32,3.838,3.838,0,0,0,.21,1.314,2.7,2.7,0,0,0,.6.969,2.54,2.54,0,0,0,.93.6A3.376,3.376,0,0,0,6.772,4.3,6.868,6.868,0,0,0,8.086,4.2a5.2,5.2,0,0,0,.772-.2V1.05H7.518V3.119a1.729,1.729,0,0,1-.278.035c-.106,0-.233.008-.382.008a1.721,1.721,0,0,1-.721-.141,1.424,1.424,0,0,1-.515-.4,1.756,1.756,0,0,1-.309-.613,2.876,2.876,0,0,1-.1-.8,2.22,2.22,0,0,1,.415-1.42A1.631,1.631,0,0,1,6.978-.726a2.646,2.646,0,0,1,.777.108" transform="translate(1.31 1.893)" fill="#fff"/>
    </g>
  </g>
</svg>
