<svg xmlns="http://www.w3.org/2000/svg" viewBox="0 0 20 20"><defs><style>.cls-1{fill:#fff;}</style></defs><g id="Layer_2" data-name="Layer 2"><g id="Layer_1-2" data-name="Layer 1"><g id="Group_2116" data-name="Group 2116"><g id="Ellipse_58" data-name="Ellipse 58"><circle class="cls-1" cx="10" cy="10" r="10"/><path d="M10,20A10,10,0,1,1,20,10,10,10,0,0,1,10,20ZM10,1a9,9,0,1,0,9,9A9,9,0,0,0,10,1Z"/></g><g id="Path_2575" data-name="Path 2575"><path d="M9.37,13.31V5.19A.63.63,0,0,1,10,4.53a.61.61,0,0,1,.63.45,1.24,1.24,0,0,1,0,.27v8l.05.05a.64.64,0,0,1,.08-.14l2.9-2.9a.69.69,0,0,1,.42-.22.63.63,0,0,1,.69.55.62.62,0,0,1-.19.53l-2.51,2.5-1.58,1.58a.62.62,0,0,1-.88.09l-.09-.09L5.44,11.16a.62.62,0,0,1-.06-.88l0,0a.63.63,0,0,1,.9,0l0,0L9.25,13.2Z"/></g></g></g></g></svg>