<svg id="Group_994" data-name="Group 994" xmlns="http://www.w3.org/2000/svg" width="24.986" height="23.488" viewBox="0 0 24.986 23.488">
  <path id="Path_66" data-name="Path 66" d="M60.56,307.386a2.368,2.368,0,0,0-.244.092q-5.232,2.66-10.46,5.325a.681.681,0,0,1-.485.064q-5.053-1.077-10.107-2.146a1.529,1.529,0,0,0-.314-.028q-1.55,0-3.1,0h-.276v-6.559h.255c.968,0,1.937.005,2.9-.006a.728.728,0,0,0,.394-.134,6.354,6.354,0,0,1,3.976-1.309,6.229,6.229,0,0,1,3.584,1.3.787.787,0,0,0,.416.141c.706.025,1.421-.028,2.12.053a3.532,3.532,0,0,1,2.984,2.3c.016.037.03.075.046.112a.492.492,0,0,0,.037.055c.742-.4,1.48-.8,2.231-1.184a7.951,7.951,0,0,1,1.526-.683,3.793,3.793,0,0,1,4.065,1.8c.147.238.3.474.447.711Zm-20.605,1.978c.083.022.145.042.208.055q4.518.957,9.037,1.906a.711.711,0,0,0,.433-.057q4.238-2.143,8.467-4.3c.1-.05.2-.1.3-.157a2.105,2.105,0,0,0-2.523-.42c-1.262.67-2.521,1.346-3.785,2.013a.874.874,0,0,1-.39.1q-3.528.009-7.055,0c-.078,0-.157-.007-.229-.011v-1.453h6.441c-.055-.118-.091-.216-.142-.3a2.138,2.138,0,0,0-1.888-1.141c-.764-.021-1.53-.01-2.294,0a.581.581,0,0,1-.431-.168,4.59,4.59,0,0,0-5.972-.347.4.4,0,0,0-.169.258C39.951,306.673,39.955,308.009,39.955,309.364Zm-2.908-3.774v3.628h1.426V305.6c-.057,0-.1-.007-.137-.007Z" transform="translate(-35.574 -289.398)" fill="#555"/>
  <path id="Path_67" data-name="Path 67" d="M64.385,274.631c.419.079.846.132,1.257.241a6.563,6.563,0,1,1-3.367-.008c.4-.11.823-.157,1.235-.233Zm-1.178,1.545a5.1,5.1,0,0,0,.01,10.1V284.9c-1.349-.171-2.326-1.174-2.154-2.194h1.4c.16.573.355.719.953.719.4,0,.794,0,1.191,0a.736.736,0,0,0,.8-.732.748.748,0,0,0-.808-.724c-.478,0-.956.006-1.434,0a2.178,2.178,0,0,1-.691-4.227,7.248,7.248,0,0,1,.748-.179c0-.38,0-.776,0-1.171C63.216,276.32,63.21,276.248,63.207,276.176Zm1.477,10.106a5.113,5.113,0,0,0,.005-10.114v1.419c1.326.169,2.335,1.206,2.133,2.188h-1.4c-.166-.574-.363-.72-.961-.72-.4,0-.793,0-1.19,0a.738.738,0,0,0-.784.745.729.729,0,0,0,.789.711c.486,0,.972-.01,1.457.006a2.182,2.182,0,0,1,.5,4.292c-.177.047-.36.066-.548.1Z" transform="translate(-47.03 -274.631)" fill="#555"/>
</svg>
