<svg id="Group_2650" data-name="Group 2650" xmlns="http://www.w3.org/2000/svg" width="46.836" height="46.836" viewBox="0 0 46.836 46.836">
  <path id="Path_3697" data-name="Path 3697" d="M2.158,4.316A23.418,23.418,0,0,0,25.576-19.1,23.419,23.419,0,0,0,2.158-42.52,23.419,23.419,0,0,0-21.26-19.1,23.418,23.418,0,0,0,2.158,4.316" transform="translate(21.26 42.519)" fill="#fff"/>
  <path id="Path_3700" data-name="Path 3700" d="M1.211,3.453A2.933,2.933,0,0,0,.9,3.289Q-4.423,1.21-9.754-.858a.456.456,0,0,1-.36-.522c.026-.595.008-1.192.008-1.772-.041-.03-.058-.053-.078-.055A1.921,1.921,0,0,1-11.922-5.42c.024-.572,0-1.146,0-1.718a1.915,1.915,0,0,1,1.8-2.15v-3.874l1.625.618c.25-.284.476-.571.731-.827A4.851,4.851,0,0,1-4.94-14.6c.995-.161,1.985-.348,2.975-.535a1.034,1.034,0,0,0,.3-.188c-.07-.1-.119-.237-.215-.3A6.071,6.071,0,0,1-4.5-19.31a.525.525,0,0,0-.291-.307,2.345,2.345,0,0,1-1.668-2.248,49.96,49.96,0,0,1,.041-5.405,6.988,6.988,0,0,1,4.663-6.181,7.184,7.184,0,0,1,7.98,1.657,2.383,2.383,0,0,0,.627.414,3.559,3.559,0,0,1,2.309,3.264c.067,2.1.037,4.214.013,6.322a2.288,2.288,0,0,1-1.595,2.139.509.509,0,0,0-.383.411,5.966,5.966,0,0,1-2.509,3.552,1.641,1.641,0,0,0-.305.4,2.4,2.4,0,0,0,.443.175c1.181.226,2.365.432,3.545.66A4.15,4.15,0,0,1,11-12.772c.056.077.12.149.191.235l1.61-.618v3.783a8.954,8.954,0,0,1,1.094.5,1.939,1.939,0,0,1,.757,1.359v2.56a.862.862,0,0,0-.063.165A1.77,1.77,0,0,1,13.1-3.254c-.09.018-.18.046-.283.073,0,.6-.014,1.189.007,1.771a.481.481,0,0,1-.365.556Q7.13,1.2,1.809,3.289a2.933,2.933,0,0,0-.306.164ZM-8.878-11.379c0,.783-.01,1.489.011,2.194a.476.476,0,0,0,.235.3,2.951,2.951,0,0,1,.478,4.891,1.642,1.642,0,0,0-.725,1.684.369.369,0,0,1,0,.11c-.046.269.059.4.325.5C-5.574-.55-2.6.613.376,1.771c.109.043.224.07.356.112.009-.095.02-.153.02-.211,0-3.009,0-6.019.008-9.029,0-.256-.127-.323-.322-.4Q-3.028-9.1-6.488-10.448l-2.39-.931M1.961,1.9c.193-.067.318-.108.441-.155q3.97-1.547,7.94-3.1c.415-.162.994-.235,1.187-.543.21-.333.057-.9.063-1.357,0-.012,0-.028,0-.036-.056-.095-.09-.231-.174-.275a3.018,3.018,0,0,1-.011-5.347.348.348,0,0,0,.177-.232c.013-.727.008-1.454.008-2.215-.145.046-.249.075-.348.113Q6.78-9.508,2.315-7.776a.467.467,0,0,0-.362.521c.013,2.923.008,5.848.008,8.771ZM7.952-24.087a.3.3,0,0,0,.026-.089c0-1.23.024-2.461-.007-3.69a2.53,2.53,0,0,0-1.7-2.44,2.288,2.288,0,0,1-.749-.473,6.275,6.275,0,0,0-5.6-1.9,6.153,6.153,0,0,0-5.053,4.993c-.143,1.178-.087,2.378-.119,3.569,0,.017.029.034.029.035.585,0,.574-.427.552-.827.507-.035.972-.035,1.425-.1A5.144,5.144,0,0,0-.272-26.585c.351-.362.7-.724,1.048-1.076a.865.865,0,0,1,.117.084c.1.126.192.252.285.38a5.415,5.415,0,0,0,2.4,1.89,5.88,5.88,0,0,0,2.178.365c.532,0,1.064,0,1.636,0-.029.44-.052.858.557.855m-11.418.339c0,1,0,1.974,0,2.948a5.6,5.6,0,0,0,.057.691A4.814,4.814,0,0,0,.866-15.924a4.786,4.786,0,0,0,5.118-3.513,17.155,17.155,0,0,0,.18-4.218c0-.019-.026-.036-.068-.087a6.6,6.6,0,0,1-5.4-2.1,6.569,6.569,0,0,1-4.166,2.088M-1.479-9.809c-.436-1.312-.84-2.541-1.263-3.764-.024-.07-.206-.141-.3-.127-.658.1-1.312.234-1.97.347a3.178,3.178,0,0,0-2.253,1.291l5.787,2.253m5.674,0,5.791-2.255a2.683,2.683,0,0,0-1.57-1.115c-.9-.206-1.8-.367-2.71-.531a.314.314,0,0,0-.256.154c-.108.242-.18.5-.264.755-.322.972-.644,1.943-.991,2.992m-2.8-2.077L-.921-9.593c.69.269,1.412.553,2.136.831a.328.328,0,0,0,.211.017c.758-.284,1.511-.577,2.246-.859L1.394-11.888M-10.7-6.239c0,.377-.012.753,0,1.129a.629.629,0,0,0,.7.666A1.83,1.83,0,0,0-8.29-6.208,1.832,1.832,0,0,0-9.858-8.026c-.55-.062-.828.177-.839.729-.008.352,0,.7,0,1.057m24.11-.017c0-.34,0-.68,0-1.02-.009-.576-.292-.821-.856-.749A1.834,1.834,0,0,0,11-6.192a1.828,1.828,0,0,0,1.686,1.747.633.633,0,0,0,.718-.681c.013-.377,0-.753,0-1.13M.361-12.86c-.445-.334-.912-.7-1.4-1.04a1.838,1.838,0,0,0-.563-.137c.293.876.545,1.628.793,2.37.393-.4.772-.786,1.171-1.194m2.032-.019,1.153,1.148c.229-.692.48-1.445.73-2.2-.408-.178-.12-.282-1.884,1.049m-2.64-1.964,1.6,1.205,1.6-1.2a7.658,7.658,0,0,1-3.2,0m-4.459-6.1v-1.943a1.024,1.024,0,0,0-.544.944,1.072,1.072,0,0,0,.544,1m12.123,0a1.066,1.066,0,0,0,.545-1,1.014,1.014,0,0,0-.545-.94Z" transform="translate(22.053 38.699)" fill="#0fae4d"/>
</svg>
