<svg xmlns="http://www.w3.org/2000/svg" xmlns:xlink="http://www.w3.org/1999/xlink" width="42.52" height="42.52" viewBox="0 0 42.52 42.52">
  <defs>
    <clipPath id="clip-path">
      <path id="Path_4244" data-name="Path 4244" d="M0,0H42.52V-42.52H0Z" fill="none"/>
    </clipPath>
  </defs>
  <g id="Group_3153" data-name="Group 3153" transform="translate(46 14092.479)">
    <g id="Group_3152" data-name="Group 3152" transform="translate(-46 -14049.96)">
      <g id="Group_3151" data-name="Group 3151" clip-path="url(#clip-path)">
        <g id="Group_3147" data-name="Group 3147" transform="translate(21.26 0.001)">
          <path id="Path_4240" data-name="Path 4240" d="M0,0A21.261,21.261,0,0,0,21.26-21.26,21.261,21.261,0,0,0,0-42.52,21.261,21.261,0,0,0-21.26-21.26,21.261,21.261,0,0,0,0,0" fill="#fff"/>
        </g>
        <g id="Group_3148" data-name="Group 3148" transform="translate(21.206 -7.983)">
          <path id="Path_4241" data-name="Path 4241" d="M0,0A3.685,3.685,0,0,1-1.506-.874Q-4.123-2.939-6.747-5c-.079-.062-.16-.123-.175-.1-.438.394-.874.79-1.317,1.179-.093.082-.218.2-.318.187a.655.655,0,0,1-.409-.207.364.364,0,0,1,.07-.5q.6-.628,1.21-1.256c.608-.629.609-.631,1.294-.093Q-3.5-3.514-.607-1.238a1.061,1.061,0,0,0,1.761-.2Q3.074-3.85,5-6.263c.257-.323.438-.342.767-.082.167.132.326.272.5.4a.426.426,0,0,0,.729-.271c.156-.879.292-1.762.434-2.643.1-.636.2-1.273.305-1.909a.446.446,0,0,0-.634-.528q-2.143.81-4.281,1.632a.441.441,0,0,0-.142.8c.244.212.5.407.748.615a.426.426,0,0,1,.072.693Q1.927-5.585.356-3.616c-.218.274-.428.279-.738.036L-5.362-7.5c-.384-.3-.765-.609-1.153-.905A.983.983,0,0,0-7.929-8.3q-2.164,2.238-4.326,4.479a.994.994,0,0,0-.277,1.062.979.979,0,0,0,1.617.4c.276-.258.526-.544.79-.814.239-.244.484-.271.674-.079s.164.418-.063.657c-.249.261-.5.523-.751.776a1.756,1.756,0,0,1-1.952.466,1.749,1.749,0,0,1-1.2-1.605,1.657,1.657,0,0,1,.456-1.32q2.259-2.359,4.532-4.7c.013-.014.026-.026.04-.039.125-.113.326-.209.355-.343s-.107-.321-.157-.488c-.164-.545-.321-1.093-.474-1.614a11.351,11.351,0,0,1-1.59-.257,5.134,5.134,0,0,1-3.809-4.322.64.64,0,0,0-.05-.125v-1.218c.046-.2.09-.408.141-.611a5.242,5.242,0,0,1,7.92-3.185l.12.074c.514-.443,1-.89,1.52-1.3a11.388,11.388,0,0,1,1.077-.725c.389-.242.574-.185.8.22q2.43,4.31,4.853,8.623a.5.5,0,0,0,.509.307q4.914-.015,9.828-.007c.581,0,.695.118.678.7a11.1,11.1,0,0,1-8.7,10.546c-.421.094-.857.119-1.28.2a.772.772,0,0,0-.408.223c-.327.376-.643.763-.933,1.167A2.476,2.476,0,0,1,.388,0ZM12.444-13.135h-.377q-4.788,0-9.577.005a.734.734,0,0,1-.728-.423Q-.6-17.774-2.979-21.982c-.052-.093-.109-.184-.171-.286a9.825,9.825,0,0,0-2.085,1.716,5.147,5.147,0,0,1,1.384,5.23A5.209,5.209,0,0,1-7.862-11.6c.22.664.428,1.309.651,1.949A.3.3,0,0,0-7-9.482a2.016,2.016,0,0,1,1.071.469q2.195,1.731,4.393,3.455c.483.38.967.757,1.459,1.143l2.7-3.4c-.181-.147-.34-.273-.495-.4a1.272,1.272,0,0,1,.349-2.216q2.172-.852,4.359-1.663a1.281,1.281,0,0,1,1.725,1.463c-.052.3-.1.6-.148.9C8.211-8.49,8.03-7.242,7.8-6a1.257,1.257,0,0,1-1.989.77c-.118-.082-.23-.172-.353-.264L4.652-4.482l-.8,1.008a10.154,10.154,0,0,0,8.591-9.661M-4.48-16.748a4.387,4.387,0,0,0-4.376-4.413A4.407,4.407,0,0,0-13.29-16.77a4.433,4.433,0,0,0,4.4,4.412,4.415,4.415,0,0,0,4.411-4.39" fill="#0fae4d"/>
        </g>
        <g id="Group_3149" data-name="Group 3149" transform="translate(34.586 -23.886)">
          <path id="Path_4242" data-name="Path 4242" d="M0,0A9.98,9.98,0,0,0-.889-3.774c-.152-.335-.336-.656-.506-.982a.425.425,0,0,1,.132-.624.432.432,0,0,1,.6.215A10.838,10.838,0,0,1,.794-.656C.823-.335.84-.013.847.31c.008.4-.13.532-.524.533H-5.712c-1.448,0-2.9-.008-4.345.006a.64.64,0,0,1-.635-.378q-2.518-4.5-5.054-8.982c-.225-.4-.171-.58.232-.8A11.1,11.1,0,0,1-1.764-6.724c.214.258.222.48.024.659s-.453.131-.669-.121A10.06,10.06,0,0,0-8.445-9.651a10.062,10.062,0,0,0-6.32.9c-.032.016-.061.037-.112.068l.488.868q2.142,3.805,4.282,7.611A.354.354,0,0,0-9.752.02Q-5,.008-.257.014C-.176.014-.1,0,0,0" fill="#0fae4d"/>
        </g>
        <g id="Group_3150" data-name="Group 3150" transform="translate(13.132 -23.672)">
          <path id="Path_4243" data-name="Path 4243" d="M0,0A.665.665,0,0,0-.45-.7C-.822-.856-1.2-1-1.564-1.18a1.219,1.219,0,0,1-.759-1.238,1.421,1.421,0,0,1,.877-1.274.378.378,0,0,0,.18-.249c.049-.32.175-.479.428-.481s.383.156.437.472a.384.384,0,0,0,.179.213c.163.1.351.163.511.269a.419.419,0,0,1,.143.6.413.413,0,0,1-.608.09,1.021,1.021,0,0,0-.894-.145.561.561,0,0,0-.406.5.429.429,0,0,0,.279.486c.309.143.619.284.936.407A1.522,1.522,0,0,1,.853-.1,1.712,1.712,0,0,1-.2,1.48a.274.274,0,0,0-.21.3.446.446,0,0,1-.405.5.433.433,0,0,1-.434-.47c-.006-.179-.079-.21-.238-.255a3.473,3.473,0,0,1-.754-.328A.4.4,0,0,1-2.4.653.4.4,0,0,1-1.82.519,1.624,1.624,0,0,0-.764.757.8.8,0,0,0,0,0" fill="#0fae4d"/>
        </g>
      </g>
    </g>
  </g>
</svg>
