<svg xmlns="http://www.w3.org/2000/svg" xmlns:xlink="http://www.w3.org/1999/xlink" width="42.52" height="42.52" viewBox="0 0 42.52 42.52">
  <defs>
    <clipPath id="clip-path">
      <path id="Path_4247" data-name="Path 4247" d="M0,0H42.52V-42.52H0Z" fill="none"/>
    </clipPath>
  </defs>
  <g id="Group_3157" data-name="Group 3157" transform="translate(0 42.52)">
    <g id="Group_3156" data-name="Group 3156" clip-path="url(#clip-path)">
      <g id="Group_3154" data-name="Group 3154" transform="translate(21.26 0.001)">
        <path id="Path_4245" data-name="Path 4245" d="M0,0A21.261,21.261,0,0,0,21.26-21.26,21.261,21.261,0,0,0,0-42.52,21.261,21.261,0,0,0-21.26-21.26,21.261,21.261,0,0,0,0,0" fill="#fff"/>
      </g>
      <g id="Group_3155" data-name="Group 3155" transform="translate(30.228 -7.087)">
        <path id="Path_4246" data-name="Path 4246" d="M0,0A1.452,1.452,0,0,1-.218-.417c-.036-.234.152-.4.412-.411a6.576,6.576,0,0,0,.879-.049,1.186,1.186,0,0,0,.975-1.177c0-2.13.024-4.261-.008-6.391a2.9,2.9,0,0,0-3.052-2.778c-3.236.018-6.472,0-9.707,0q-2.67,0-5.338,0a2.84,2.84,0,0,0-2.77,1.7,2.7,2.7,0,0,0-.254,1.089c-.024,2.121-.017,4.242-.012,6.363A1.159,1.159,0,0,0-18-.853c1.1.047,2.207.013,3.34.013v-.312c0-1.107,0-2.213,0-3.32a2.064,2.064,0,0,1,2.174-2.166q3.968,0,7.937,0a2.079,2.079,0,0,1,2.167,2.18c0,1.1,0,2.2,0,3.293v.336c.264,0,.509.006.754,0s.448.021.543.277S-1.143-.14-1.328,0H-18.255c-.021-.017-.039-.041-.062-.048a2.085,2.085,0,0,1-1.63-2.177c0-2-.008-4,0-6a3.728,3.728,0,0,1,2.984-3.742,4.1,4.1,0,0,1,.85-.083c1.853-.008,3.706,0,5.559,0h.349v-2.065l-.291.147a9.506,9.506,0,0,1-8.893.02,2.473,2.473,0,0,1-.646-4.056q1.823-1.836,3.657-3.659c.071-.071.154-.13.264-.222-.31-.3-.578-.581-.871-.831a.608.608,0,0,0-.358-.068A2.084,2.084,0,0,1-19.4-24.558a2.086,2.086,0,0,1,1.451-2.3,2.065,2.065,0,0,1,2.676,1.972.667.667,0,0,0,.228.553c.224.2.422.434.655.678.494-.5.96-.966,1.427-1.434.314-.315.552-.364.754-.159s.147.439-.168.754q-3.5,3.5-7,7a1.688,1.688,0,0,0-.533,1.7,1.619,1.619,0,0,0,.86,1.061A8.788,8.788,0,0,0-6.41-20.568a8.674,8.674,0,0,0-.77-5.956A1.642,1.642,0,0,0-9.9-26.967c-.364.354-.717.718-1.078,1.074-.227.224-.475.242-.654.058s-.157-.423.073-.655c.377-.38.75-.764,1.136-1.133a2.454,2.454,0,0,1,3.949.65,9.459,9.459,0,0,1-.87,10.336c-.069.1-.146.189-.231.3A1.718,1.718,0,0,1-6.9-15.268a2.816,2.816,0,0,1,.033.44c0,.911,0,1.822,0,2.77h.34q2.779,0,5.56,0a3.738,3.738,0,0,1,3.811,3.2,4.281,4.281,0,0,1,.035.717q0,2.919,0,5.838A2.077,2.077,0,0,1,1.207-.031.165.165,0,0,0,1.162,0ZM-3.241-.843A.686.686,0,0,0-3.22-.959c0-1.2.016-2.4,0-3.6A1.237,1.237,0,0,0-4.556-5.806q-3.967-.007-7.936,0a1.258,1.258,0,0,0-1.339,1.357q0,1.672,0,3.347v.256H-13V-1.16q0-1.646,0-3.292c0-.392.137-.526.535-.526q1.465,0,2.931,0c.478,0,.6.123.6.608q0,1.6,0,3.209c0,.106.009.211.014.319h.8v-.31c0-1.1,0-2.194,0-3.292,0-.384.153-.533.537-.533q1.494,0,2.987,0c.42,0,.554.138.555.568q0,1.632,0,3.264v.3ZM-9.806-4.125h-2.349V-.839h2.349Zm0,3.285,4.911-3.291H-7.25V-.84h2.355Zm0,3.291M-8.147-15.683c-.351.3-.7.577-1.034.879a.524.524,0,0,0-.163.335c-.017.561-.007,1.123-.007,1.685v.7H-7.7c0-.972.007-1.92,0-2.867a.777.777,0,0,0-.447-.733m-9.2-7.944A1.258,1.258,0,0,0-16.1-24.879a1.267,1.267,0,0,0-1.241-1.233,1.262,1.262,0,0,0-1.246,1.255,1.255,1.255,0,0,0,1.239,1.23m1.8-.018-.561.538.519.517.589-.488-.547-.567" fill="#96319a"/>
      </g>
    </g>
  </g>
</svg>
