<svg xmlns="http://www.w3.org/2000/svg" xmlns:xlink="http://www.w3.org/1999/xlink" width="42.52" height="42.52" viewBox="0 0 42.52 42.52">
  <defs>
    <clipPath id="clip-path">
      <path id="Path_4239" data-name="Path 4239" d="M0,0H42.52V-42.52H0Z" fill="none"/>
    </clipPath>
  </defs>
  <g id="Group_3146" data-name="Group 3146" transform="translate(102 14092.479)">
    <g id="Group_3145" data-name="Group 3145" transform="translate(-102 -14049.96)">
      <g id="Group_3144" data-name="Group 3144" clip-path="url(#clip-path)">
        <g id="Group_3140" data-name="Group 3140" transform="translate(21.26)">
          <path id="Path_4235" data-name="Path 4235" d="M0,0A21.261,21.261,0,0,0,21.26-21.26,21.261,21.261,0,0,0,0-42.52,21.261,21.261,0,0,0-21.26-21.26,21.261,21.261,0,0,0,0,0" fill="#fff"/>
        </g>
        <g id="Group_3141" data-name="Group 3141" transform="translate(7.087 -14.951)">
          <path id="Path_4236" data-name="Path 4236" d="M0,0C.515-.538,1.028-1.078,1.546-1.614c.282-.291.572-.575.861-.861.4-.4.69-.4,1.089,0Q6.061.087,8.624,2.653c.071.071.128.155.223.271.219-.228.412-.411.584-.612a1.088,1.088,0,0,1,.906-.371q3.752.014,7.5,0a.8.8,0,0,0,.465-.168q2.967-2.4,5.916-4.829a.957.957,0,0,0,.2-.224q1.234-1.965,2.464-3.936c.024-.039.042-.081.07-.135a1.229,1.229,0,0,0-1.247.048,5.1,5.1,0,0,0-1.1.868A10.2,10.2,0,0,1,21.842-4.31c-.274.147-.534.321-.814.49a2.452,2.452,0,0,1,.152,1.657A2.382,2.382,0,0,1,18.763-.4c-1.661.005-3.322,0-4.983,0-.542,0-.668.1-.789.637A.6.6,0,0,1,12.3.764a.617.617,0,0,1-.479-.727A1.788,1.788,0,0,1,13.716-1.6c1.725,0,3.451,0,5.176,0a1.165,1.165,0,0,0,1.1-1.6,1.167,1.167,0,0,0-1.131-.733c-1.531,0-3.063-.012-4.6,0a3.616,3.616,0,0,1-1.484-.247,4.868,4.868,0,0,0-2.21-.367c-.726.042-1.457.007-2.183.059a3.286,3.286,0,0,0-2.1,1c-.177.175-.346.359-.531.526a.593.593,0,0,1-.846.026A.6.6,0,0,1,4.92-3.8a5.138,5.138,0,0,1,3.255-1.87c.283-.034.569-.047.855-.054.4-.008.8.021,1.19-.006a6.84,6.84,0,0,1,3.238.519,1.114,1.114,0,0,0,.431.068q2.354.008,4.706,0a2.928,2.928,0,0,1,1.493.327.351.351,0,0,0,.3-.018c.732-.428,1.462-.858,2.179-1.31a4.531,4.531,0,0,0,.552-.5A20.391,20.391,0,0,1,24.92-8.222,2.466,2.466,0,0,1,28-8.081c.4.347.458.6.177,1.051Q26.789-4.813,25.4-2.6a1.6,1.6,0,0,1-.322.373Q21.945.347,18.807,2.912a1.06,1.06,0,0,1-.715.238c-2.408,0-4.817.019-7.224-.018a1.311,1.311,0,0,0-1.17.637c.224.21.459.416.678.638a.618.618,0,0,1,0,1.008q-1.091,1.1-2.193,2.192a3.99,3.99,0,0,1-.321.255H7.475c-.517-.432-.525-.707-.035-1.2l.724-.723,1-1L2.918-1.3,1.2.423C.707.913.431.9,0,.388Z" fill="#ff3459"/>
        </g>
        <g id="Group_3142" data-name="Group 3142" transform="translate(21.502 -34.247)">
          <path id="Path_4237" data-name="Path 4237" d="M0,0A7.737,7.737,0,0,0-7.541,5.334a7.243,7.243,0,0,0,.516,5.781c.063.122.136.24.2.365a.6.6,0,0,1-.215.839.588.588,0,0,1-.834-.3,11.789,11.789,0,0,1-.759-1.683A8.432,8.432,0,0,1-6.5,1.426,8.514,8.514,0,0,1,.78-1.129,8.929,8.929,0,0,1,8.254,5.149,8.612,8.612,0,0,1,7.4,12.022a.592.592,0,0,1-.678.355.549.549,0,0,1-.455-.52,1.311,1.311,0,0,1,.169-.54,7.83,7.83,0,0,0,.924-2.758A7.33,7.33,0,0,0,6.431,3.9,7.521,7.521,0,0,0,1.353.176,12.37,12.37,0,0,0,0,0" fill="#ff3459"/>
        </g>
        <g id="Group_3143" data-name="Group 3143" transform="translate(21.883 -22.434)">
          <path id="Path_4238" data-name="Path 4238" d="M0,0A6.6,6.6,0,0,1-.058.7a.557.557,0,0,1-.566.468A.568.568,0,0,1-1.187.695,1.789,1.789,0,0,1-1.221.367c-.006-.109,0-.219,0-.343C-1.521,0-1.8,0-2.084-.042a1.744,1.744,0,0,1-1.485-1.7.594.594,0,0,1,.508-.623.592.592,0,0,1,.639.417c.24.75.377.835,1.2.715v-2.31h-.513A1.775,1.775,0,0,1-3.567-5.265a14.245,14.245,0,0,1,.025-1.547A1.771,1.771,0,0,1-1.763-8.287c.165-.006.33,0,.541,0,0-.175,0-.337,0-.5a.619.619,0,0,1,.589-.671.621.621,0,0,1,.611.677c0,.154,0,.308,0,.466.311.024.6.03.876.07A1.746,1.746,0,0,1,2.327-6.531a.593.593,0,0,1-.495.606.593.593,0,0,1-.649-.4C.92-7.1.851-7.147-.02-7.066v2.321c.175,0,.337,0,.5,0A1.77,1.77,0,0,1,2.323-3.036c0,.516.025,1.035-.022,1.547A1.771,1.771,0,0,1,.507,0C.343,0,.178,0,0,0M-1.234-7.086c-.183,0-.347,0-.511,0a.584.584,0,0,0-.64.582,10.018,10.018,0,0,0,0,1.188A.551.551,0,0,0-1.9-4.76a6.084,6.084,0,0,0,.663.005ZM-.008-1.2c.187,0,.343,0,.5,0a.6.6,0,0,0,.657-.626c.015-.367.015-.737,0-1.105a.549.549,0,0,0-.427-.576,4.005,4.005,0,0,0-.727-.009Z" fill="#ff3459"/>
        </g>
      </g>
    </g>
  </g>
</svg>
