<svg xmlns="http://www.w3.org/2000/svg" width="42.52" height="42.52" viewBox="0 0 42.52 42.52">
  <g id="Group_3158" data-name="Group 3158" transform="translate(-55.683 13595.206)">
    <path id="Path_4260" data-name="Path 4260" d="M0,0A21.261,21.261,0,0,0,21.26-21.26,21.261,21.261,0,0,0,0-42.52,21.261,21.261,0,0,0-21.26-21.26,21.261,21.261,0,0,0,0,0" transform="translate(76.943 -13552.687)" fill="#fff"/>
    <path id="Path_4261" data-name="Path 4261" d="M0,0A.754.754,0,0,1-.289-.693c.015-.736,0-1.472,0-2.251h-1.2c-.148,0-.295,0-.443,0a.5.5,0,0,1-.551-.465.5.5,0,0,1,.548-.5c.442-.011.885,0,1.328,0h.317c0-.156,0-.29,0-.424C-.3-5.007-.306-5.679-.322-6.351c-.007-.3.217-.5.592-.507A7.087,7.087,0,0,0,3.16-7.5a7.87,7.87,0,0,0,2.4-1.738c.368-.381.574-.364.943.014A7.07,7.07,0,0,0,13.955-7.17,7.011,7.011,0,0,0,19.1-12.83a7.315,7.315,0,0,0-3.77-7.862c-.073-.039-.148-.074-.221-.114a.478.478,0,0,1-.262-.662.48.48,0,0,1,.685-.188,8.017,8.017,0,0,1,2.689,2.087,8.05,8.05,0,0,1,1.965,5.8,8.289,8.289,0,0,1-6.82,7.738,8.181,8.181,0,0,1-7.229-2.2c-.027-.025-.056-.047-.112-.094A8.418,8.418,0,0,1,.679-5.913v2h.676c.332,0,.664-.01.995.006a.473.473,0,0,1,.49.49.477.477,0,0,1-.512.469c-.442.009-.885,0-1.328,0H.662v.865c0,.48-.013.96,0,1.439A.632.632,0,0,1,.332,0Z" transform="translate(70.908 -13559.773)" fill="#ffb52f"/>
    <path id="Path_4262" data-name="Path 4262" d="M0,0A15.213,15.213,0,0,1,.34-1.587,8.02,8.02,0,0,1,6.841-7.4a8,8,0,0,1,7.607,2.585c.315.333.209.774-.193.862a.559.559,0,0,1-.545-.254,7.32,7.32,0,0,0-2.679-1.861A7.353,7.353,0,0,0,1.041-.383,7.31,7.31,0,0,0,5.915,7.7c.347.123.484.311.423.577-.076.335-.334.46-.707.333A8.1,8.1,0,0,1,2.7,6.878a8.161,8.161,0,0,1-2.648-5.2A1.113,1.113,0,0,0,0,1.494Z" transform="translate(62.773 -13574.717)" fill="#ffb52f"/>
    <path id="Path_4263" data-name="Path 4263" d="M0,0A5.719,5.719,0,0,1,5.309,3.656,5.62,5.62,0,0,1,1.2,11.139,5.425,5.425,0,0,1-3.7,9.883a1.926,1.926,0,0,1-.239-.23.47.47,0,0,1,.016-.63.465.465,0,0,1,.627-.05c.265.2.508.429.784.611A4.711,4.711,0,0,0,4.66,6.336,4.7,4.7,0,0,0-.431.969,4.445,4.445,0,0,0-3.007,2.062c-.084.072-.163.15-.25.218a.472.472,0,0,1-.67-.032.469.469,0,0,1,.036-.67A5.415,5.415,0,0,1-2.178.433,5.468,5.468,0,0,1,0,0" transform="translate(82.793 -13579.61)" fill="#ffb52f"/>
    <path id="Path_4264" data-name="Path 4264" d="M0,0A5.76,5.76,0,0,1-5.619-4.711a5.612,5.612,0,0,1,4.36-6.467,5.451,5.451,0,0,1,4.9,1.23,1.977,1.977,0,0,1,.22.209.466.466,0,0,1,0,.65.459.459,0,0,1-.626.052c-.163-.12-.309-.263-.47-.385A4.7,4.7,0,0,0-4.687-6.436,4.683,4.683,0,0,0-.68-1.049,4.546,4.546,0,0,0,3.1-2.214a.925.925,0,0,1,.344-.216.422.422,0,0,1,.512.229.475.475,0,0,1-.115.6A5.315,5.315,0,0,1,1.465-.247C.987-.125.489-.08,0,0" transform="translate(71.118 -13568.289)" fill="#ffb52f"/>
    <path id="Path_4265" data-name="Path 4265" d="M0,0V1.681c0,.968,0,1.937,0,2.9,0,.4-.169.583-.562.586A7.279,7.279,0,0,0-4.315,6.235a.484.484,0,0,1-.724-.114c-.155-.259-.061-.525.249-.712A8.338,8.338,0,0,1-.963,4.227V.043c-.069.058-.129.1-.181.154C-1.653.7-2.16,1.215-2.671,1.722a.463.463,0,0,1-.626.085.433.433,0,0,1-.187-.53.706.706,0,0,1,.182-.27Q-2.093-.209-.877-1.419a.487.487,0,0,1,.81,0Q1.151-.213,2.36,1c.267.269.287.534.068.751s-.474.19-.732-.064C1.216,1.218.746.735.272.258.2.188.128.121,0,0" transform="translate(83.312 -13586.483)" fill="#ffb52f"/>
    <path id="Path_4266" data-name="Path 4266" d="M0,0C-.737,0-1.473,0-2.21,0c-.354,0-.556-.173-.56-.467s.188-.478.544-.479q2.225,0,4.448,0c.359,0,.55.175.547.477S2.561,0,2.21,0C1.473,0,.737,0,0,0" transform="translate(76.939 -13574.94)" fill="#ffb52f"/>
    <path id="Path_4267" data-name="Path 4267" d="M0,0C-.746,0-1.492,0-2.238,0a.457.457,0,0,1-.516-.48A.469.469,0,0,1-2.22-.947c1.492,0,2.983,0,4.475,0,.225,0,.426.073.483.287a.615.615,0,0,1-.069.479.673.673,0,0,1-.459.176C1.474.01.737,0,0,0" transform="translate(76.923 -13571.994)" fill="#ffb52f"/>
  </g>
</svg>
