<svg xmlns="http://www.w3.org/2000/svg" width="42.52" height="42.52" viewBox="0 0 42.52 42.52">
  <g id="Group_3160" data-name="Group 3160" transform="translate(-55.683 13310.543)">
    <path id="Path_4258" data-name="Path 4258" d="M0,0A21.261,21.261,0,0,0,21.26-21.26,21.261,21.261,0,0,0,0-42.52,21.261,21.261,0,0,0-21.26-21.26,21.261,21.261,0,0,0,0,0" transform="translate(76.943 -13268.023)" fill="#fff"/>
    <path id="Path_4274" data-name="Path 4274" d="M0,0A1.225,1.225,0,0,1-.789-1.306c.032-1.3.01-2.6.01-3.9v-.387H-5.246A1.033,1.033,0,0,1-6.37-6.723q0-1.479,0-2.957a1.025,1.025,0,0,1,1.114-1.108H-.779v-.377q0-2.031,0-4.061A1.032,1.032,0,0,1,.356-16.378q1.479,0,2.958,0A1.027,1.027,0,0,1,4.419-15.26q0,2.046,0,4.093v.379H8.9A1.028,1.028,0,0,1,10.01-9.68q0,1.5,0,2.989a1.023,1.023,0,0,1-1.091,1.1c-1.483,0-2.966,0-4.5,0v.355c0,1.31-.022,2.621.009,3.93A1.223,1.223,0,0,1,3.641,0ZM-5.318-6.628c1.457,0,2.877.034,4.294-.013a1.16,1.16,0,0,1,1.3,1.279C.226-4.042.259-2.72.259-1.4v.333H3.382c0-1.142.023-2.257,0-3.372-.053-2.086.109-2.25,2.18-2.2,1.018.026,2.037.005,3.055.005h.335V-9.751c-1.455,0-2.886-.03-4.314.013a1.158,1.158,0,0,1-1.264-1.279c.048-1.319.013-2.642.013-3.963v-.334H.259c0,1.141-.024,2.256,0,3.371.053,2.081-.112,2.252-2.182,2.2-1.017-.027-2.036-.005-3.054-.005h-.346Z" transform="translate(75.772 -13275.499)" fill="#96319a"/>
    <path id="Path_4275" data-name="Path 4275" d="M0,0C.048-.186.095-.373.145-.558A4.291,4.291,0,0,1,4.247-3.7c.921,0,1.843.019,2.763-.006a4.565,4.565,0,0,1,2.5.543c.322-.251.613-.46.885-.692a4.374,4.374,0,0,1,2.81-1.115c1.374-.024,2.751-.011,4.124.048a3.883,3.883,0,0,1,2.191.895.521.521,0,0,1,.151.742.506.506,0,0,1-.77.1,3.789,3.789,0,0,0-2.465-.738c-.985.024-1.972,0-2.958.007A3.492,3.492,0,0,0,9.884-.5c-.026.451-.328.7-.692.565a.474.474,0,0,1-.345-.526c.066-.554.154-1.1.242-1.724a2.227,2.227,0,0,0-1.233-.431A33.914,33.914,0,0,0,3.9-2.6,3.141,3.141,0,0,0,1.041.687q-.01,2.828,0,5.654a.532.532,0,0,1-.36.586.505.505,0,0,1-.633-.259C.04,6.651.017,6.642,0,6.63Z" transform="translate(62.77 -13289.733)" fill="#96319a"/>
    <path id="Path_4276" data-name="Path 4276" d="M0,0A3.732,3.732,0,0,1,2.458-3.77,3.729,3.729,0,0,1,7.421-.549a4.376,4.376,0,0,1-.653,2.975A3.738,3.738,0,0,1,2.64,3.866,3.71,3.71,0,0,1,0,.422C0,.281,0,.141,0,0M6.381.033c0-.13,0-.26,0-.39A2.677,2.677,0,0,0,3.891-2.933a2.664,2.664,0,0,0-2.779,2.1A6.1,6.1,0,0,0,1.045.359,2.669,2.669,0,0,0,4.4,2.876,2.685,2.685,0,0,0,6.381.033" transform="translate(74.403 -13299.077)" fill="#96319a"/>
    <path id="Path_4277" data-name="Path 4277" d="M0,0A3.533,3.533,0,0,1,2.65-3.652,3.527,3.527,0,0,1,7.024-.31a4.085,4.085,0,0,1-.689,2.673,3.515,3.515,0,0,1-3.9,1.258A3.5,3.5,0,0,1,0,.292V0M5.978.006c0-.109,0-.217,0-.325A2.48,2.48,0,0,0,4.023-2.652,2.467,2.467,0,0,0,1.264-1.257,3.365,3.365,0,0,0,1.046.4,2.467,2.467,0,0,0,4.292,2.612,2.523,2.523,0,0,0,5.978.006" transform="translate(65.371 -13297.484)" fill="#96319a"/>
    <path id="Path_4278" data-name="Path 4278" d="M0,0A2.831,2.831,0,0,1,2.165-2.928,2.8,2.8,0,0,1,5.607-.32,2.915,2.915,0,0,1,3.68,2.85,2.814,2.814,0,0,1,0,0M1.066.01c0,.057,0,.133,0,.209A1.743,1.743,0,0,0,2.648,1.938,1.724,1.724,0,0,0,4.487.623,3.583,3.583,0,0,0,4.517-.5a1.742,1.742,0,0,0-1.96-1.432A1.77,1.77,0,0,0,1.066.01" transform="translate(83.538 -13293.041)" fill="#96319a"/>
    <path id="Path_4279" data-name="Path 4279" d="M0,0V2.046c0,.616-.133.835-.511.84s-.527-.222-.527-.824c0-1.32-.018-2.641,0-3.962A2.39,2.39,0,0,0-3.556-4.417c-.723.041-1.451.014-2.176.006a2.35,2.35,0,0,0-1.4.436c-.339.234-.64.216-.83-.041s-.109-.573.236-.821a3.2,3.2,0,0,1,1.877-.626c.941-.008,1.886-.029,2.824.03A3.339,3.339,0,0,1,0-2.208C.007-1.472,0-.736,0,0Z" transform="translate(91.114 -13284.361)" fill="#96319a"/>
  </g>
</svg>
