<svg xmlns="http://www.w3.org/2000/svg" width="42.52" height="42.52" viewBox="0 0 42.52 42.52">
  <g id="Group_3159" data-name="Group 3159" transform="translate(-55.683 13452.874)">
    <path id="Path_4259" data-name="Path 4259" d="M0,0A21.261,21.261,0,0,0,21.26-21.26,21.261,21.261,0,0,0,0-42.52,21.261,21.261,0,0,0-21.26-21.26,21.261,21.261,0,0,0,0,0" transform="translate(76.943 -13410.354)" fill="#fff"/>
    <path id="Path_4268" data-name="Path 4268" d="M0,0V.347q0,1.564-.011,3.13a.519.519,0,0,1-.566.585q-2.7.008-5.394,0a.531.531,0,0,1-.582-.578c-.007-.113,0-.227,0-.341V2.809C-7.569,2.886-8.178,2.53-8.4,1.746a1.616,1.616,0,0,1-.052-.427c0-.982-.027-1.965.017-2.944A6.423,6.423,0,0,1-7.107-5.262,2.556,2.556,0,0,1-5.049-6.24q1.734-.054,3.47-.007A2.641,2.641,0,0,1,.39-5.212c.058.069.115.14.227.277v-.394q0-3.689,0-7.377c0-.544.159-.7.694-.7H19.2c.515,0,.69.171.69.683q0,6.214,0,12.429c0,.533-.176.709-.7.709q-6.96,0-13.918,0A.521.521,0,0,0,4.728.69,1.715,1.715,0,0,1,2.4,1.3C1.706.919,1.01.536.312.156.225.109.135.067,0,0M18.837-12.351H1.688a.4.4,0,0,0-.023.079q0,4.449,0,8.9a.414.414,0,0,0,.15.311c.593.345,1.2.668,1.808,1,.955-1.415,1.893-2.807,2.845-4.219a.36.36,0,0,1,.5-.1l.263.177a.355.355,0,0,1,.1.493s0,0,0,0Q5.985-3.714,4.647-1.721a.4.4,0,0,0-.064.314c.12.258.28.5.428.752H18.837ZM-1.029,3.011c0-1,0-1.973,0-2.943,0-.589,0-1.178.018-1.767a.479.479,0,0,1,.522-.49A.489.489,0,0,1,0-1.7c.009.113-.011.23.009.34a.341.341,0,0,0,.119.221C1.076-.607,2.021-.078,2.982.422a.7.7,0,0,0,.98-.611.792.792,0,0,0-.475-.769c-.724-.4-1.454-.781-2.17-1.19A1.354,1.354,0,0,1,.874-2.56c-.4-.593-.759-1.205-1.146-1.8A1.72,1.72,0,0,0-1.73-5.224c-1.054-.017-2.108-.019-3.162,0a1.717,1.717,0,0,0-1.63.936A10.456,10.456,0,0,0-7.1-3.058a13.576,13.576,0,0,0-.307,4.484c0,.04.007.1.032.116.138.088.289.237.423.225s.275-.172.366-.3c.055-.079.027-.221.027-.334,0-.981,0-1.963,0-2.945a1.389,1.389,0,0,1,.041-.4.466.466,0,0,1,.522-.345.471.471,0,0,1,.458.425,1.88,1.88,0,0,1,.01.31q0,2.247,0,4.494v.337Z" transform="translate(71.228 -13426.942)" fill="#0fae4d"/>
    <path id="Path_4269" data-name="Path 4269" d="M0,0A2.891,2.891,0,0,1-2.868,2.888,2.9,2.9,0,0,1-5.745,0,2.9,2.9,0,0,1-2.857-2.9,2.893,2.893,0,0,1,0,0M-2.86-1.864A1.874,1.874,0,0,0-4.718-.009,1.877,1.877,0,0,0-2.867,1.854,1.871,1.871,0,0,0-1.027.013,1.869,1.869,0,0,0-2.86-1.864" transform="translate(70.739 -13436.631)" fill="#0fae4d"/>
    <path id="Path_4270" data-name="Path 4270" d="M0,0H.276a.36.36,0,0,1,.36.359v8.1a.36.36,0,0,1-.36.359H0a.359.359,0,0,1-.359-.359V.359A.359.359,0,0,1,0,0" transform="translate(87.805 -13437.669)" fill="#0fae4d"/>
    <path id="Path_4271" data-name="Path 4271" d="M0,0H.265A.359.359,0,0,1,.624.359V4.835a.359.359,0,0,1-.359.359H0a.359.359,0,0,1-.359-.359V.359A.359.359,0,0,1,0,0" transform="translate(81.011 -13434.038)" fill="#0fae4d"/>
    <path id="Path_4272" data-name="Path 4272" d="M0,0H.275A.359.359,0,0,1,.634.359V4.5a.359.359,0,0,1-.359.36H0A.36.36,0,0,1-.359,4.5V.359A.359.359,0,0,1,0,0" transform="translate(85.066 -13433.71)" fill="#0fae4d"/>
    <path id="Path_4273" data-name="Path 4273" d="M0,0H.273A.359.359,0,0,1,.632.359v2.6a.36.36,0,0,1-.359.36H0a.36.36,0,0,1-.359-.36V.359A.359.359,0,0,1,0,0" transform="translate(83.079 -13432.164)" fill="#0fae4d"/>
  </g>
</svg>
