<svg xmlns="http://www.w3.org/2000/svg" width="42.52" height="42.52" viewBox="0 0 42.52 42.52">
  <g id="Group_3217" data-name="Group 3217" transform="translate(-161.503 13641.206)">
    <path id="Path_4327" data-name="Path 4327" d="M0,0A21.261,21.261,0,0,0,21.26-21.26,21.261,21.261,0,0,0,0-42.52,21.261,21.261,0,0,0-21.26-21.26,21.261,21.261,0,0,0,0,0" transform="translate(182.763 -13598.687)" fill="#fff"/>
    <path id="Path_4330" data-name="Path 4330" d="M0,0C.062-.258.112-.52.187-.774A4.651,4.651,0,0,1,4.516-4.089c.055,0,.109,0,.177-.008A4.206,4.206,0,0,1,6.769-6.992a4.225,4.225,0,0,1,3.568-.286c.047-.194.088-.381.137-.565a7.047,7.047,0,0,1,5.971-5.148l.6-.067h.387c.561.093,1.13.154,1.682.286a6.294,6.294,0,0,1,2.317,1.129c.265.2.322.42.169.635s-.409.225-.68.03a6.168,6.168,0,0,0-9.659,3.465,5.593,5.593,0,0,0-.138.759c-.055.489-.312.637-.757.419A3.358,3.358,0,0,0,5.623-4.311a5.615,5.615,0,0,0-.137.646c-.061.336-.216.463-.547.437A3.75,3.75,0,0,0,1.2-1.059a3.719,3.719,0,0,0,.095,3.4c.026.049.058.094.083.143a.43.43,0,0,1-.142.622.416.416,0,0,1-.582-.2,4.425,4.425,0,0,1-.595-1.65A.851.851,0,0,0,0,1.107Z" transform="translate(168.59 -13619.439)" fill="#0fae4d"/>
    <path id="Path_4331" data-name="Path 4331" d="M0,0C.119.006.208.014.3.014q6.336,0,12.671,0A4.395,4.395,0,0,0,17.394-3.6a4.43,4.43,0,0,0-3.535-5.143c-.413-.067-.618-.219-.546-.721a6.006,6.006,0,0,0-1.186-4.606c-.19-.255-.174-.5.032-.657s.442-.108.639.153a6.886,6.886,0,0,1,1.41,4.629c-.006.127,0,.256,0,.384.3.1.6.193.882.315a5.283,5.283,0,0,1,3.2,5.312A5.283,5.283,0,0,1,14.1.752a6.516,6.516,0,0,1-1.264.111Q6.606.875.381.868H.017V3.1c.216,0,.417-.006.617,0a.977.977,0,0,1,.942.646.947.947,0,0,1-.222,1.1c-.8.771-1.6,1.552-2.442,2.288a2.393,2.393,0,0,1-3.206-.044c-.792-.719-1.565-1.459-2.34-2.2A.97.97,0,0,1-6.9,3.738a1,1,0,0,1,.98-.634c.184,0,.367,0,.571,0V.943c-.577-.131-1.15-.224-1.7-.4A5.062,5.062,0,0,1-8.065.009a.406.406,0,0,1-.143-.594A.412.412,0,0,1-7.6-.68,3.62,3.62,0,0,0-5.326,0c0-.249,0-.5,0-.756A1.606,1.606,0,0,1-3.634-2.463q.969-.012,1.937,0A1.605,1.605,0,0,1,0-.761C0-.514,0-.267,0,0M-.84,1.3c0-.7,0-1.4,0-2.1a.75.75,0,0,0-.808-.812c-.627,0-1.254,0-1.882,0-.695,0-.964.271-.964.972,0,1.356,0,2.711,0,4.066,0,.379-.135.511-.516.515-.286,0-.572-.009-.857.007a.34.34,0,0,0-.241.13c-.028.044.025.177.081.23.774.737,1.541,1.484,2.34,2.194a1.56,1.56,0,0,0,2.1-.03C-.822,5.767-.07,5.046.684,4.326c.063-.06.136-.211.109-.246a.409.409,0,0,0-.272-.134c-.275-.017-.553,0-.829-.007-.39,0-.53-.145-.531-.536,0-.7,0-1.4,0-2.1" transform="translate(178.622 -13615.125)" fill="#0fae4d"/>
    <path id="Path_4332" data-name="Path 4332" d="M0,0A3.019,3.019,0,0,1,2.989,3.025,3.03,3.03,0,0,1-.02,6.008,3.036,3.036,0,0,1-3.025,2.991,3.024,3.024,0,0,1,0,0M-2.173,3A2.14,2.14,0,0,0-.016,5.155,2.153,2.153,0,0,0,2.147,3,2.181,2.181,0,0,0-.017.834,2.166,2.166,0,0,0-2.173,3" transform="translate(185.518 -13624.028)" fill="#0fae4d"/>
    <path id="Path_4333" data-name="Path 4333" d="M0,0A2.891,2.891,0,0,1,1.376.445c.282.172.365.393.236.617s-.371.273-.67.1A2.161,2.161,0,0,0-2.3,2.5,2.145,2.145,0,0,0,.318,5.083a2.3,2.3,0,0,0,.741-.451c.264-.216.457-.263.655-.08s.176.43-.056.677a2.754,2.754,0,0,1-3.546.249,3,3,0,0,1-1.174-3.36A3.082,3.082,0,0,1,0,0" transform="translate(180.266 -13624.029)" fill="#0fae4d"/>
    <path id="Path_4334" data-name="Path 4334" d="M0,0C.265,0,.476-.006.687,0c.3.012.482.181.481.427A.438.438,0,0,1,.683.85c-.452.008-.9.006-1.355,0A.518.518,0,0,1-1.19.6.521.521,0,0,1-1.067.016c.322-.438.645-.875.96-1.318a2.644,2.644,0,0,0,.26-.453A.327.327,0,0,0-.014-2.22a.354.354,0,0,0-.479.2c-.008.017-.012.035-.019.052-.124.287-.324.4-.551.318A.452.452,0,0,1-1.3-2.275,1.212,1.212,0,0,1,.211-3.038,1.169,1.169,0,0,1,.974-1.56a4,4,0,0,1-.417.774C.4-.531.209-.293,0,0" transform="translate(190.606 -13618.535)" fill="#0fae4d"/>
  </g>
</svg>
