<svg xmlns="http://www.w3.org/2000/svg" width="42.52" height="42.52" viewBox="0 0 42.52 42.52">
  <g id="Group_3219" data-name="Group 3219" transform="translate(-161.503 13356.543)">
    <path id="Path_4329" data-name="Path 4329" d="M0,0A21.261,21.261,0,0,0,21.26-21.26,21.261,21.261,0,0,0,0-42.52,21.261,21.261,0,0,0-21.26-21.26,21.261,21.261,0,0,0,0,0" transform="translate(182.763 -13314.023)" fill="#fff"/>
    <path id="Path_4341" data-name="Path 4341" d="M0,0C.137.047.275.092.411.143A2.355,2.355,0,0,1,1.947,2.349q0,4.311,0,8.622v.369c.243,0,.474,0,.705,0a.505.505,0,0,1,.579.461c.064.278.138.554.176.835a.318.318,0,0,0,.287.314.412.412,0,0,1,.165.062c.454.333.829.187,1.251-.115.674-.481.694-.453,1.278.131.244.243.489.485.731.731a.5.5,0,0,1,.088.734c-.031.05-.062.1-.094.15-.522.813-.525.815-.126,1.668a.354.354,0,0,0,.212.163c.3.081.613.136.918.212a.485.485,0,0,1,.443.56c0,.463,0,.925,0,1.388,0,.37-.112.51-.475.6-.277.066-.553.141-.834.182a.309.309,0,0,0-.3.268,1.121,1.121,0,0,1-.143.354.625.625,0,0,0,.064.862,3.972,3.972,0,0,1,.355.541.481.481,0,0,1-.058.646c-.357.366-.719.728-1.082,1.089a.479.479,0,0,1-.645.063c-.258-.161-.513-.329-.77-.493-.049-.032-.112-.1-.148-.088-.329.109-.658.221-.975.359-.072.032-.113.168-.138.264-.07.275-.12.556-.185.833-.077.332-.3.5-.584.449a.486.486,0,0,1-.349-.639c.084-.424.179-.845.263-1.269a.615.615,0,0,1,.444-.494,11.865,11.865,0,0,0,1.165-.485.6.6,0,0,1,.66.035c.21.145.435.27.643.417a.227.227,0,0,0,.35-.027c.424-.421.454-.433.1-.912a.986.986,0,0,1-.088-1.326,2.308,2.308,0,0,0,.3-.792A.638.638,0,0,1,6.7,18.55c.3-.053.595-.126.9-.193V17.55c-.3-.066-.6-.14-.895-.193a.669.669,0,0,1-.573-.511,7.9,7.9,0,0,0-.465-1.109.579.579,0,0,1,.028-.659c.092-.128.172-.264.257-.4.288-.452.242-.669-.218-.943a.279.279,0,0,0-.229.027c-.238.139-.469.289-.7.443a.582.582,0,0,1-.635.026c-.388-.184-.788-.346-1.191-.5a.574.574,0,0,1-.414-.449c-.065-.327-.142-.652-.217-.991H1.965v2.809a2.861,2.861,0,0,1,2.128.993,2.839,2.839,0,0,1-.444,4.127.512.512,0,0,1-.759-.021c-.188-.24-.131-.485.168-.732a1.882,1.882,0,0,0-1.11-3.4v9.788A2.35,2.35,0,0,1-.527,28.345q-5.094,0-10.187,0A2.347,2.347,0,0,1-13.168,25.9q0-4.253,0-8.5v-.388c-.251,0-.483,0-.716,0a.492.492,0,0,1-.563-.442c-.068-.286-.126-.575-.188-.863-.006-.029-.005-.059-.013-.087a1.7,1.7,0,0,0-1.188-.466c-.267.166-.529.34-.8.506a.483.483,0,0,1-.711-.073c-.345-.337-.682-.682-1.025-1.021a.494.494,0,0,1-.07-.69c.043-.066.086-.132.128-.2.509-.8.512-.8.1-1.645a.365.365,0,0,0-.217-.158c-.265-.072-.546-.1-.8-.191a3.16,3.16,0,0,1-.553-.339V9.449a3.16,3.16,0,0,1,.553-.339c.255-.095.535-.119.8-.191a.367.367,0,0,0,.216-.158c.413-.849.41-.85-.1-1.643-.042-.066-.085-.132-.128-.2a.5.5,0,0,1,.078-.69c.342-.339.678-.685,1.021-1.024a.483.483,0,0,1,.711-.073c.267.166.529.34.8.506a1.714,1.714,0,0,0,1.189-.464c.008-.028.006-.059.013-.088.068-.306.127-.615.207-.918a.47.47,0,0,1,.572-.38.478.478,0,0,1,.349.59c-.088.443-.189.883-.276,1.326a.6.6,0,0,1-.481.493,2.622,2.622,0,0,0-.793.3,1.014,1.014,0,0,1-1.354-.083c-.475-.355-.491-.324-.909.111-.109.113-.129.194-.036.325.154.215.285.448.436.666a.588.588,0,0,1,.026.66,8.455,8.455,0,0,0-.465,1.108.656.656,0,0,1-.544.505c-.313.06-.623.137-.922.2v.8c.311.069.606.144.905.2a.636.636,0,0,1,.561.521,2.289,2.289,0,0,0,.3.764,1.017,1.017,0,0,1-.078,1.355c-.359.48-.328.5.1.91.112.108.193.134.326.039.191-.137.4-.245.592-.386a.662.662,0,0,1,.813-.036,4.482,4.482,0,0,0,1,.418.678.678,0,0,1,.548.6c.048.3.126.586.188.87h.39V13.242c-.053-.007-.09-.014-.128-.016a2.833,2.833,0,0,1-2.633-3.407,2.754,2.754,0,0,1,1.13-1.736.487.487,0,0,1,.71.052.473.473,0,0,1-.121.7c-.083.07-.17.135-.248.209a1.864,1.864,0,0,0-.427,2.088,1.841,1.841,0,0,0,1.733,1.132v-.347q0-4.767,0-9.535A2.36,2.36,0,0,1-11.407.07c.063-.018.124-.047.186-.07ZM1,14.2V2.563A1.455,1.455,0,0,0-.62.944H-10.6a1.454,1.454,0,0,0-1.625,1.618q0,11.6,0,23.206A1.461,1.461,0,0,0-10.586,27.4h9.95A1.461,1.461,0,0,0,1,25.769V14.2" transform="translate(188.374 -13349.456)" fill="#96319a"/>
    <path id="Path_4342" data-name="Path 4342" d="M0,0A.464.464,0,0,1,.476-.511a.462.462,0,0,1,.466.463A.521.521,0,0,1,.465.484.445.445,0,0,1,0,0" transform="translate(192.213 -13345.163)" fill="#96319a"/>
    <path id="Path_4343" data-name="Path 4343" d="M0,0A.463.463,0,0,1,.465.493.52.52,0,0,1-.012,1,.446.446,0,0,1-.477.511.465.465,0,0,1,0,0" transform="translate(192.69 -13343.785)" fill="#96319a"/>
    <path id="Path_4344" data-name="Path 4344" d="M0,0A.464.464,0,0,1,.476-.511a.462.462,0,0,1,.466.463A.521.521,0,0,1,.465.484.446.446,0,0,1,0,0" transform="translate(192.213 -13341.384)" fill="#96319a"/>
    <path id="Path_4345" data-name="Path 4345" d="M0,0A.487.487,0,0,1,.472-.525a.484.484,0,0,1,.47.5.492.492,0,0,1-.5.5A.422.422,0,0,1,0,0" transform="translate(172.371 -13329.191)" fill="#96319a"/>
    <path id="Path_4346" data-name="Path 4346" d="M0,0A.484.484,0,0,1,.474.493a.493.493,0,0,1-.5.5A.422.422,0,0,1-.468.528.488.488,0,0,1,0,0" transform="translate(172.839 -13327.826)" fill="#96319a"/>
    <path id="Path_4347" data-name="Path 4347" d="M0,0A.483.483,0,0,1,.474-.493a.482.482,0,0,1,.467.5A.49.49,0,0,1,.438.5.427.427,0,0,1,0,0" transform="translate(172.371 -13325.443)" fill="#96319a"/>
    <path id="Path_4348" data-name="Path 4348" d="M0,0,1.38,1.379c.063.063.129.122.185.19a.475.475,0,0,1-.018.665.452.452,0,0,1-.64.011C.253,1.607-.4.962-1.031.3A.431.431,0,0,1-1-.334Q-.073-1.28.873-2.212a.469.469,0,0,1,.686,0,.471.471,0,0,1-.026.686c-.5.5-1,1-1.533,1.529" transform="translate(179.182 -13335.286)" fill="#96319a"/>
    <path id="Path_4349" data-name="Path 4349" d="M0,0C-.529-.525-1.027-1.014-1.518-1.509a.48.48,0,0,1-.053-.706.467.467,0,0,1,.685,0Q.064-1.288.992-.34a.454.454,0,0,1,0,.686Q.069,1.284-.868,2.2a.475.475,0,0,1-.708.009.474.474,0,0,1,.041-.685c.5-.5,1-1,1.535-1.527" transform="translate(186.353 -13335.283)" fill="#96319a"/>
    <path id="Path_4350" data-name="Path 4350" d="M0,0C.125-.494.265-1.045.4-1.6c.179-.713.352-1.428.536-2.14a.476.476,0,0,1,.584-.4.485.485,0,0,1,.341.626Q1.4-1.654.932.2a.465.465,0,0,1-.55.374A.494.494,0,0,1,0,0" transform="translate(181.824 -13333.501)" fill="#96319a"/>
    <path id="Path_4351" data-name="Path 4351" d="M0,0C-.443,0-.886,0-1.329,0c-.345,0-.545-.187-.536-.486.008-.283.2-.454.537-.455q1.359,0,2.717,0a.462.462,0,0,1,.521.47A.464.464,0,0,1,1.388,0C.925,0,.463,0,0,0" transform="translate(182.741 -13346.623)" fill="#96319a"/>
  </g>
</svg>
