<svg xmlns="http://www.w3.org/2000/svg" width="42.52" height="42.52" viewBox="0 0 42.52 42.52">
  <g id="Group_3218" data-name="Group 3218" transform="translate(-161.503 13498.874)">
    <path id="Path_4328" data-name="Path 4328" d="M0,0A21.261,21.261,0,0,0,21.26-21.26,21.261,21.261,0,0,0,0-42.52,21.261,21.261,0,0,0-21.26-21.26,21.261,21.261,0,0,0,0,0" transform="translate(182.763 -13456.354)" fill="#fff"/>
    <path id="Path_4335" data-name="Path 4335" d="M0,0V-15.148c.039-.116.075-.232.116-.348a2.164,2.164,0,0,1,2.147-1.428q2.962,0,5.926,0H8.5c0-.6-.011-1.165.005-1.727.006-.208-.065-.284-.258-.336-1.087-.292-2.171-.6-3.256-.9a.892.892,0,0,1-.746-.844.873.873,0,0,1,.724-.857q3.109-.869,6.218-1.733c.443-.124.88-.266,1.32-.4h.5a2.218,2.218,0,0,0,.244.1q3.6,1,7.2,2c.064.018.128.034.191.055a.879.879,0,0,1,.627.812.842.842,0,0,1-.63.828q-1.695.486-3.4.946a.258.258,0,0,0-.232.3c.013.5,0,1,.005,1.5,0,.079.009.158.015.256h.322c1.976,0,3.953-.005,5.929,0a2.127,2.127,0,0,1,2.23,2.117q.006,7.25,0,14.5a2.1,2.1,0,0,1-2.09,2.1q-10.662,0-21.325,0A2.1,2.1,0,0,1,.14.423C.088.284.046.141,0,0M24.663-4.181V-6.776q0-3.96,0-7.921a1.27,1.27,0,0,0-1.354-1.356q-3.176,0-6.351,0a.456.456,0,0,0-.255.061,3.335,3.335,0,0,1-1.325.54,14.087,14.087,0,0,1-4.829.083,4.025,4.025,0,0,1-1.658-.564.753.753,0,0,0-.385-.118c-2.076-.007-4.152.016-6.227-.015A1.362,1.362,0,0,0,.842-14.622C.859-11.235.849-7.847.849-4.459v.278ZM.849-3.291v.245q0,1.3,0,2.591a1.3,1.3,0,0,0,1.4,1.4H23.269a1.3,1.3,0,0,0,1.393-1.4q0-1.3,0-2.591v-.241Zm19.5-17.441a1.067,1.067,0,0,0-.1-.047Q16.576-21.8,12.9-22.819a.71.71,0,0,0-.359.021q-2.13.582-4.257,1.177c-1.024.284-2.046.571-3.117.87.1.037.151.061.2.076Q8.987-19.67,12.6-18.669a.66.66,0,0,0,.336-.006q2.849-.783,5.694-1.576l1.722-.481M9.362-18.671c0,.64.006,1.236,0,1.832,0,.158.047.259.193.3a11.353,11.353,0,0,0,1.29.341,13.05,13.05,0,0,0,3.5.042,12.5,12.5,0,0,0,1.609-.386.266.266,0,0,0,.2-.317c-.016-.306,0-.614,0-.921v-.873c-.1.019-.153.026-.207.041-.71.2-1.431.36-2.125.6a3.057,3.057,0,0,1-2.1,0c-.755-.262-1.541-.439-2.355-.664" transform="translate(170.007 -13466.652)" fill="#ff3459"/>
    <path id="Path_4336" data-name="Path 4336" d="M0,0-2.562-2.555a1.71,1.71,0,0,1-.169-.182A.4.4,0,0,1-2.7-3.28a.425.425,0,0,1,.565-.045,1.442,1.442,0,0,1,.146.136Q-.6-1.809.777-.426c.318.318.319.5,0,.818Q-.628,1.8-2.037,3.207a.436.436,0,0,1-.732-.044.447.447,0,0,1,.14-.575Q-1.429,1.394-.233.2C-.169.132-.095.079,0,0" transform="translate(188.134 -13476.749)" fill="#ff3459"/>
    <path id="Path_4337" data-name="Path 4337" d="M0,0,1.143,1.142c.5.5,1.013,1.007,1.513,1.516a.415.415,0,0,1,.019.638.433.433,0,0,1-.622-.035c-.244-.237-.482-.481-.723-.721Q.249,1.457-.835.373a.431.431,0,0,1,0-.71Q.592-1.774,2.03-3.207a.437.437,0,0,1,.657-.044c.187.193.17.425-.06.656q-1.2,1.2-2.4,2.4C.168-.136.094-.081,0,0" transform="translate(177.4 -13476.781)" fill="#ff3459"/>
    <path id="Path_4338" data-name="Path 4338" d="M0,0C-.016.054-.036.143-.068.227Q-1.292,3.494-2.518,6.76c-.014.039-.026.079-.043.116a.432.432,0,0,1-.562.272.425.425,0,0,1-.24-.575c.19-.53.391-1.056.589-1.582q.938-2.5,1.876-5A1.277,1.277,0,0,1-.781-.279.394.394,0,0,1-.309-.464.423.423,0,0,1,0,0" transform="translate(184.461 -13480.111)" fill="#ff3459"/>
    <path id="Path_4339" data-name="Path 4339" d="M0,0A.885.885,0,0,1-.978.848H-1.6A.881.881,0,0,1-2.58,0h-.286Q-4.6,0-6.328,0a.431.431,0,0,1-.48-.343A.38.38,0,0,1-6.593-.8a.856.856,0,0,1,.362-.056c1.121,0,2.242,0,3.363,0h.21a3.338,3.338,0,0,1,.373-.621,2.007,2.007,0,0,1,1.99,0,3.338,3.338,0,0,1,.373.621H9.5a2.957,2.957,0,0,1,.3.008.418.418,0,0,1,.394.407.437.437,0,0,1-.37.435A1.772,1.772,0,0,1,9.551,0H0ZM-.883-.836h-.809v.815h.809Zm0,.815" transform="translate(182.778 -13467.403)" fill="#ff3459"/>
    <path id="Path_4340" data-name="Path 4340" d="M0,0C0-.133,0-.266,0-.4a.85.85,0,0,1,1.216-.795,7,7,0,0,1,1.015.575A.753.753,0,0,1,2.215.644a8.006,8.006,0,0,1-.97.553A.852.852,0,0,1,0,.4C0,.266,0,.133,0,0M.873.436,1.616.007.873-.418Z" transform="translate(172.552 -13467.843)" fill="#ff3459"/>
  </g>
</svg>
