<svg xmlns="http://www.w3.org/2000/svg" width="42.52" height="42.52" viewBox="0 0 42.52 42.52">
  <g id="Group_3213" data-name="Group 3213" transform="translate(-38.503 13580.631)">
    <g id="Group_3192" data-name="Group 3192" transform="translate(59.763 -13538.111)">
      <path id="Path_4296" data-name="Path 4296" d="M0,0A21.261,21.261,0,0,0,21.26-21.26,21.261,21.261,0,0,0,0-42.52,21.261,21.261,0,0,0-21.26-21.26,21.261,21.261,0,0,0,0,0" fill="#fff"/>
    </g>
    <g id="Group_3193" data-name="Group 3193" transform="translate(45.59 -13563.129)">
      <path id="Path_4297" data-name="Path 4297" d="M0,0,4.669-4.668c.324-.323.541-.371.756-.167s.164.45-.162.776q-2,2-4.01,4.01c-.071.071-.138.145-.191.2l1.7,1.7L9.542-4.924,7.829-6.631c-.25.252-.532.537-.816.822A3.409,3.409,0,0,1,6.7-5.5a.4.4,0,0,1-.553-.023A.369.369,0,0,1,6.1-6.072Q6.838-6.855,7.621-7.6c.19-.18.411-.115.591.065C8.975-6.77,9.74-6.01,10.5-5.243a.422.422,0,0,1,0,.657c-.081.086-.179.156-.3.262.433.406.808.8,1.229,1.135a1.456,1.456,0,0,0,.752.308,3.5,3.5,0,0,1,2.221.952c.17-.128.326-.254.49-.368a2.55,2.55,0,0,1,1.571-.519A1.424,1.424,0,0,0,17.5-3.26c.342-.323.675-.656,1-.994a.292.292,0,0,0,.051-.235,1.466,1.466,0,0,1,.43-1.439c.28-.294.57-.578.861-.861a1.4,1.4,0,0,1,2.068,0Q23.46-5.249,25-3.7a.444.444,0,0,1,.072.658c-.187.2-.437.18-.677-.06q-1.509-1.5-3.012-3.014c-.372-.373-.64-.372-1.014,0-.261.26-.524.518-.781.783a.571.571,0,0,0,0,.917q2.97,2.978,5.947,5.947a.566.566,0,0,0,.876.015q.448-.432.88-.88A.561.561,0,0,0,27.279-.2c-.492-.5-.991-.992-1.485-1.489a.415.415,0,0,1-.1-.549.393.393,0,0,1,.477-.186.627.627,0,0,1,.248.163c.5.492,1,.984,1.487,1.486a1.4,1.4,0,0,1,0,2.03c-.294.3-.591.609-.9.9a1.436,1.436,0,0,1-1.394.408.416.416,0,0,0-.285.084c-.1.071-.179.186-.278.267a3.269,3.269,0,0,0-1.226,2.2,3.048,3.048,0,0,1-.941,1.748c-.24.241-.483.479-.766.76.206.189.4.357.581.537a1.574,1.574,0,0,1,.4,1.822,1.607,1.607,0,0,1-1.519,1.091.718.718,0,0,0-.1.016,1.789,1.789,0,0,1-1.791,1.8,1.769,1.769,0,0,1-1.8,1.79,1.673,1.673,0,0,1-.969,1.554,1.6,1.6,0,0,1-1.893-.263c-.206-.194-.387-.416-.611-.661-.194.2-.348.362-.5.524a1.705,1.705,0,0,1-2.912-.559c0-.015-.023-.027-.051-.059a1.639,1.639,0,0,1-1.789.113,1.664,1.664,0,0,1-.928-1.542c-1.214-.237-1.668-.683-1.783-1.745a4.781,4.781,0,0,1-.581-.117A1.69,1.69,0,0,1,5.2,9.062c.473-.49.966-.961,1.491-1.482l-.608-.555A3.4,3.4,0,0,1,4.83,4.5a1.232,1.232,0,0,0-.381-.865C4.1,3.285,3.726,2.954,3.337,2.59c-.054.05-.148.146-.249.232a.409.409,0,0,1-.618,0C1.642,2,.822,1.163,0,.332ZM7.254,7.017c.379-.386.717-.738,1.066-1.08a.425.425,0,0,1,.617-.02.415.415,0,0,1-.013.616c-.049.056-.1.106-.156.158Q7.349,8.109,5.932,9.529a1.892,1.892,0,0,0-.279.34.742.742,0,0,0,.123,1,.726.726,0,0,0,1.021.1,2.1,2.1,0,0,0,.316-.265c.5-.493.993-.991,1.489-1.486.294-.293.533-.34.735-.144s.164.446-.143.754c-.326.327-.654.651-.978.979a8.332,8.332,0,0,0-.7.741.8.8,0,0,0,.444,1.311.846.846,0,0,0,.867-.3c.547-.535,1.077-1.089,1.633-1.614a.656.656,0,0,1,.478-.179c.342.054.421.465.154.736-.549.559-1.11,1.107-1.66,1.665a.842.842,0,0,0-.254.976.823.823,0,0,0,1.406.232c.538-.519,1.052-1.062,1.592-1.578a4.235,4.235,0,0,1,.624-.4,1.718,1.718,0,0,1,1.683-1.155c.141-1.158.584-1.6,1.772-1.8.182-1.146.592-1.553,1.8-1.783,0-.036.009-.072.013-.109a1.665,1.665,0,0,1,1.211-1.522,1.565,1.565,0,0,1,1.778.476c.155.167.293.35.452.541.25-.255.421-.449.612-.622a2.892,2.892,0,0,0,.95-1.794,3.15,3.15,0,0,1,1.06-2c.225-.2.434-.416.637-.612l-5.67-5.669c-.261.268-.531.545-.8.823a2.707,2.707,0,0,1-2.04.888A2.065,2.065,0,0,0,15-1.31c.369.359.708.684,1.041,1.016.679.678,1.373,1.341,2.026,2.043a2.044,2.044,0,0,1-2.922,2.857c-.256-.239-.5-.493-.747-.74L12.954,2.42a2,2,0,0,1-.189.271q-1.073,1.08-2.151,2.153c-.229.228-.468.248-.657.069s-.18-.434.06-.676q.966-.971,1.939-1.935c.143-.142.308-.261.512-.431-.167-.136-.27-.214-.366-.3s-.186-.179-.274-.274a.42.42,0,0,1-.034-.615.427.427,0,0,1,.637.02c.055.049.105.1.158.155q1.517,1.517,3.031,3.034a1.3,1.3,0,0,0,.842.426,1.158,1.158,0,0,0,1.178-.7,1.2,1.2,0,0,0-.307-1.41Q15.6.458,13.849-1.276a2.111,2.111,0,0,0-1.348-.7,3.06,3.06,0,0,1-1.629-.54l-5.7,5.682a2.091,2.091,0,0,1,.574,1.544A1.8,1.8,0,0,0,6.17,5.857c.334.39.7.753,1.084,1.16M9.661-3.667,4.03,1.963l.49.485,5.641-5.617-.5-.5M22.42,9.368a1.918,1.918,0,0,0-.256-.528c-.6-.634-1.224-1.252-1.853-1.861a.875.875,0,0,0-1.179.067.807.807,0,0,0,0,1.1c.609.629,1.231,1.245,1.856,1.858a.734.734,0,0,0,.87.132.892.892,0,0,0,.557-.772m-6.325,6.24a1,1,0,0,0,.856-.543.813.813,0,0,0-.194-.937c-.584-.587-1.167-1.176-1.758-1.757a.773.773,0,0,0-1.154-.005.787.787,0,0,0-.037,1.178q.878.9,1.781,1.774a2.407,2.407,0,0,0,.506.29m1.036-6.08a2.029,2.029,0,0,0,.275.465c.567.593,1.151,1.168,1.736,1.743a.821.821,0,0,0,1.209.016.879.879,0,0,0-.03-1.2c-.581-.591-1.171-1.174-1.759-1.759a.728.728,0,0,0-.861-.17.945.945,0,0,0-.57.9m-.9.756a1.01,1.01,0,0,0-.812.606.741.741,0,0,0,.167.864c.6.6,1.195,1.2,1.8,1.8a.756.756,0,0,0,1.111-.009.8.8,0,0,0,.068-1.161q-.906-.933-1.843-1.835a2.015,2.015,0,0,0-.493-.262m-3.549,3.181c-.145.149-.337.345-.525.544a2.127,2.127,0,0,0-.2.228.823.823,0,0,0,1.193,1.125c.222-.187.418-.407.605-.592l-1.075-1.305" fill="#ffb52f"/>
    </g>
    <g id="Group_3194" data-name="Group 3194" transform="translate(60.921 -13572.038)">
      <path id="Path_4298" data-name="Path 4298" d="M0,0C.074.031.147.064.223.091a1.409,1.409,0,0,1,.586,2.28c-.524.567-1.085,1.1-1.637,1.643A.426.426,0,0,1-1.5,4q-.768-.756-1.526-1.521A1.421,1.421,0,0,1-2.414.054.48.48,0,0,0-2.325,0h.5l.663.31L-.5,0ZM-1.163,3.111C-.7,2.66-.231,2.222.211,1.755A.538.538,0,0,0,.085.975a.558.558,0,0,0-.8.149c-.348.478-.547.479-.889,0A.561.561,0,0,0-2.38.959a.59.59,0,0,0-.118.835c.43.452.888.879,1.335,1.317" fill="#ffb52f"/>
    </g>
  </g>
</svg>
