<svg xmlns="http://www.w3.org/2000/svg" width="42.52" height="42.52" viewBox="0 0 42.52 42.52">
  <g id="Group_3214" data-name="Group 3214" transform="translate(-38.503 13473.46)">
    <g id="Group_3191" data-name="Group 3191" transform="translate(59.763 -13430.94)">
      <path id="Path_4295" data-name="Path 4295" d="M0,0A21.261,21.261,0,0,0,21.26-21.26,21.261,21.261,0,0,0,0-42.52,21.261,21.261,0,0,0-21.26-21.26,21.261,21.261,0,0,0,0,0" fill="#fff"/>
    </g>
    <g id="Group_3195" data-name="Group 3195" transform="translate(59.897 -13466.374)">
      <path id="Path_4299" data-name="Path 4299" d="M0,0A1.665,1.665,0,0,1,1.208,1.117c.184.446.428.867.624,1.308a.4.4,0,0,0,.362.268c.622.084,1.242.178,1.862.275a1.194,1.194,0,0,1,1.021.869,1.2,1.2,0,0,1-.321,1.276c-.437.438-.884.865-1.308,1.315a.544.544,0,0,0-.126.392c.074.644.182,1.283.266,1.926a1.171,1.171,0,0,1-.544,1.2A1.23,1.23,0,0,1,1.726,10Q.9,9.575.09,9.131a.392.392,0,0,0-.423,0c-.543.293-1.1.565-1.645.85A1.249,1.249,0,0,1-3.4,9.9a1.26,1.26,0,0,1-.463-1.348c.111-.6.216-1.194.3-1.794a.429.429,0,0,0-.116-.311c-.422-.438-.854-.866-1.29-1.289a1.237,1.237,0,0,1-.358-1.35A1.263,1.263,0,0,1-4.2,2.919c.6-.089,1.2-.162,1.8-.263a.468.468,0,0,0,.292-.213c.233-.434.463-.873.653-1.327A1.672,1.672,0,0,1-.247,0ZM-4.138,4.065a4.887,4.887,0,0,0,.309.38c.475.472.946.948,1.438,1.4a.841.841,0,0,1,.259.862c-.125.634-.233,1.273-.339,1.911a1.875,1.875,0,0,0,0,.351,1.668,1.668,0,0,0,.336-.1C-1.517,8.562-.9,8.248-.3,7.917a.722.722,0,0,1,.756,0c.6.33,1.215.646,1.826.964.1.054.215.091.385.16-.016-.183-.018-.3-.037-.415-.113-.669-.219-1.339-.35-2a.748.748,0,0,1,.245-.746q.727-.693,1.438-1.4a1.467,1.467,0,0,0,.189-.32,1.736,1.736,0,0,0-.331-.121c-.63-.1-1.26-.191-1.893-.264a.919.919,0,0,1-.812-.556C.828,2.6.5,2,.185,1.4A1.456,1.456,0,0,0,0,1.174a1.415,1.415,0,0,0-.209.238c-.285.535-.6,1.059-.83,1.618a1.14,1.14,0,0,1-1.105.75c-.641.052-1.277.179-1.993.285" fill="#0fae4d"/>
    </g>
    <g id="Group_3196" data-name="Group 3196" transform="translate(45.612 -13458.457)">
      <path id="Path_4300" data-name="Path 4300" d="M0,0A1.449,1.449,0,0,1,1.42-.926c.359-.023.713-.1,1.071-.144a.42.42,0,0,0,.367-.271c.187-.412.4-.812.6-1.218a1.155,1.155,0,0,1,1.1-.712,1.146,1.146,0,0,1,1.077.7c.2.4.414.783.585,1.189a.507.507,0,0,0,.465.328c.458.06.916.129,1.375.192a1.1,1.1,0,0,1,.964.756,1.082,1.082,0,0,1-.281,1.192C8.379,1.45,8,1.8,7.643,2.17a.547.547,0,0,0-.134.4c.065.488.168.972.255,1.457a1.107,1.107,0,0,1-.41,1.13,1.1,1.1,0,0,1-1.22.127C5.7,5.072,5.269,4.846,4.851,4.6A.518.518,0,0,0,4.262,4.6c-.4.234-.814.44-1.226.651A1.122,1.122,0,0,1,1.759,5.16a1.127,1.127,0,0,1-.42-1.209c.1-.463.181-.929.243-1.4a.516.516,0,0,0-.121-.371c-.285-.311-.612-.584-.892-.9A9.122,9.122,0,0,1,0,.5ZM4.561-2.164c-.314.615-.6,1.17-.88,1.732A.732.732,0,0,1,3.058,0C2.453.076,1.85.174,1.174.273c.491.488.925.938,1.381,1.364a.808.808,0,0,1,.254.858c-.131.557-.229,1.121-.351,1.736.6-.3,1.15-.561,1.69-.851a.767.767,0,0,1,.812.006c.412.232.837.44,1.256.658.121.062.243.12.4.2-.1-.619-.175-1.178-.283-1.731a.946.946,0,0,1,.3-.968c.418-.391.793-.828,1.2-1.255C7.249.195,6.655.082,6.056,0A.775.775,0,0,1,5.4-.472c-.258-.547-.534-1.085-.836-1.692" fill="#0fae4d"/>
    </g>
    <g id="Group_3197" data-name="Group 3197" transform="translate(54.89 -13448.215)">
      <path id="Path_4301" data-name="Path 4301" d="M0,0A9.924,9.924,0,0,0,2.906-4.181c.15-.426.268-.864.375-1.3a1.614,1.614,0,0,1,2.3-1.182,2.908,2.908,0,0,1,1.68,3.508c-.227.81-.48,1.612-.735,2.463.137.008.243.02.349.02,1.092,0,2.184-.013,3.276.015A2.14,2.14,0,0,1,12.21,1.067a2.079,2.079,0,0,1,.042.46c0,1.133.036,2.269-.026,3.4a6.46,6.46,0,0,1-1.4,3.7,3.841,3.841,0,0,1-3.079,1.521c-1.616.021-3.234,0-4.85-.05a5.982,5.982,0,0,1-1.419-.267C1.03,9.7.6,9.5.142,9.322c-.733,1.038-1.8.945-2.861.722A1.644,1.644,0,0,1-3.952,8.415q-.011-3.663,0-7.326A1.759,1.759,0,0,1-2.188-.652c.114,0,.228.006.34,0A2.024,2.024,0,0,1,0,0M.366,4.648c0,1.083,0,2.165,0,3.247a.405.405,0,0,0,.123.3A5.422,5.422,0,0,0,3,8.986c1.545.047,3.091.04,4.637.038A2.779,2.779,0,0,0,10,7.832,5.48,5.48,0,0,0,11.071,4.7c.017-.978-.054-1.958-.037-2.936A1.149,1.149,0,0,0,9.758.52C8.45.544,7.14.528,5.832.526q-.9,0-.643-.879c.3-1.015.608-2.027.9-3.044A1.774,1.774,0,0,0,5.24-5.506c-.551-.3-.774-.2-.918.41a11.292,11.292,0,0,1-1.488,3.5A16.661,16.661,0,0,1,.549,1.04a.672.672,0,0,0-.175.424C.359,2.525.366,3.587.366,4.648m-3.17.077c0,1.174,0,2.348,0,3.523,0,.541.211.749.744.751.227,0,.454.008.68,0a.587.587,0,0,0,.587-.56c.011-.112.009-.226.009-.339q0-3.353,0-6.705C-.782.618-.943.46-1.729.46h-.309c-.542,0-.764.225-.765.772,0,1.164,0,2.328,0,3.492" fill="#0fae4d"/>
    </g>
    <g id="Group_3198" data-name="Group 3198" transform="translate(66.145 -13454.321)">
      <path id="Path_4302" data-name="Path 4302" d="M0,0C.079-.456.187-1.012.264-1.571a.542.542,0,0,0-.123-.393C-.188-2.318-.542-2.65-.891-2.987a1.119,1.119,0,0,1-.35-1.23A1.124,1.124,0,0,1-.2-5.007c.47-.054.939-.122,1.4-.214a.56.56,0,0,0,.335-.251c.226-.4.42-.824.625-1.239a1.146,1.146,0,0,1,1.077-.7,1.146,1.146,0,0,1,1.086.685c.2.395.411.785.583,1.192a.527.527,0,0,0,.489.341c.459.056.917.123,1.375.192a1.1,1.1,0,0,1,.931.758,1.085,1.085,0,0,1-.283,1.191c-.355.359-.728.7-1.07,1.072a.6.6,0,0,0-.144.423c.059.479.153.955.247,1.428a1.1,1.1,0,0,1-.417,1.152,1.1,1.1,0,0,1-1.222.109C4.366.919,3.93.686,3.5.446a.461.461,0,0,0-.5,0c-.449.251-.9.5-1.366.715A1.159,1.159,0,0,1,0,0M-.14-3.866c.505.5.957.961,1.423,1.407a.746.746,0,0,1,.223.781C1.374-1.11,1.274-.535,1.149.095c.537-.269,1.038-.484,1.5-.763a1.046,1.046,0,0,1,1.2.017c.454.275.939.5,1.459.77-.1-.612-.18-1.169-.286-1.722a.934.934,0,0,1,.31-1c.278-.229.515-.5.779-.751.152-.143.322-.267.483-.4l-.072-.1c-.344-.057-.688-.11-1.031-.172-1.415-.253-1.074.025-1.713-1.214-.176-.34-.342-.685-.532-1.067-.317.62-.613,1.184-.9,1.755a.672.672,0,0,1-.545.4c-.621.087-1.242.177-1.95.278" fill="#0fae4d"/>
    </g>
  </g>
</svg>
