<svg xmlns="http://www.w3.org/2000/svg" width="42.52" height="42.52" viewBox="0 0 42.52 42.52">
  <g id="Group_3215" data-name="Group 3215" transform="translate(-38.503 13366.289)">
    <g id="Group_3190" data-name="Group 3190" transform="translate(59.763 -13323.77)">
      <path id="Path_4294" data-name="Path 4294" d="M0,0A21.261,21.261,0,0,0,21.26-21.26,21.261,21.261,0,0,0,0-42.52,21.261,21.261,0,0,0-21.26-21.26,21.261,21.261,0,0,0,0,0" fill="#fff"/>
    </g>
    <g id="Group_3199" data-name="Group 3199" transform="translate(60.706 -13359.195)">
      <path id="Path_4303" data-name="Path 4303" d="M0,0C.5.077,1.01.133,1.508.236a13.073,13.073,0,0,1,9.425,7.185c.054.1.105.21.176.354.392-.1.786-.2,1.181-.3.271-.067.554-.211.8.044.263.271.087.555-.005.827-.268.79-.532,1.581-.825,2.362a1.874,1.874,0,0,0-.086.917,13,13,0,0,1-2.3,9.219.417.417,0,0,1-.058.053l-.72-.515c.36-.644.743-1.251,1.05-1.894a11.95,11.95,0,0,0,1.065-6.919.811.811,0,0,0-.236-.445C10.293,10.5,9.6,9.886,8.906,9.273c-.177-.157-.332-.32-.274-.578s.266-.343.5-.4c.341-.085.68-.178,1.037-.271A12.128,12.128,0,0,0,6.337,3.351,11.816,11.816,0,0,0-1.219.96a12.075,12.075,0,0,0-9.775,5.218.7.7,0,0,0-.135.542c.116.956.208,1.915.3,2.874a.485.485,0,0,1-.723.495c-.177-.084-.347-.183-.521-.275l-.575-.3a12.325,12.325,0,0,0,1.683,10.845l-.774.553A13.316,13.316,0,0,1-13.513,9.059c-.376-.2-.768-.4-1.147-.617a4.129,4.129,0,0,1-.456-.351V7.736a3.707,3.707,0,0,1,.456-.35c.815-.452,1.64-.886,2.454-1.341a1.192,1.192,0,0,0,.382-.346A13.075,13.075,0,0,1-3.655.29C-3.073.165-2.478.095-1.89,0ZM11.422,10.231c.2-.576.383-1.11.584-1.7l-1.921.5,1.337,1.192M-12.053,7.058l-1.574.853,1.759.929c-.063-.612-.122-1.172-.185-1.782" fill="#96319a"/>
    </g>
    <g id="Group_3200" data-name="Group 3200" transform="translate(66.885 -13350.937)">
      <path id="Path_4304" data-name="Path 4304" d="M0,0A1.187,1.187,0,0,1-.728,1.056a.489.489,0,0,0-.33.587c.042.378-.011.766,0,1.148a.549.549,0,0,0,.165.323,1.818,1.818,0,0,0,.328.194A1.076,1.076,0,0,1-.178,4.777Q-.7,5.684-1.26,6.568a1.119,1.119,0,0,1-1.572.379.69.69,0,0,0-.918.043,2.673,2.673,0,0,1-.77.426.508.508,0,0,0-.405.605,1.1,1.1,0,0,1-.057.434,1.082,1.082,0,0,1-1.044.764c-.718.005-1.436,0-2.154,0a1.07,1.07,0,0,1-1.133-1.1.671.671,0,0,0-.508-.755,4.421,4.421,0,0,1-.89-.516.4.4,0,0,0-.484-.018,1.987,1.987,0,0,1-.561.251A1.118,1.118,0,0,1-13,6.554q-.539-.862-1.051-1.742a1.086,1.086,0,0,1,.4-1.53,1.46,1.46,0,0,0,.3-.177.51.51,0,0,0,.152-.3c.016-.441.018-.884,0-1.326a.605.605,0,0,0-.165-.323.934.934,0,0,0-.253-.147,1.087,1.087,0,0,1-.427-1.566q.5-.852,1.018-1.692a1.131,1.131,0,0,1,1.606-.426.694.694,0,0,0,.918-.044,2.99,2.99,0,0,1,.8-.435.483.483,0,0,0,.377-.567,1.162,1.162,0,0,1,.056-.463,1.077,1.077,0,0,1,1.043-.763c.719-.005,1.437,0,2.155,0A1.1,1.1,0,0,1-4.924-3.881a2.235,2.235,0,0,1,0,.3.336.336,0,0,0,.226.362c.4.2.8.424,1.181.658a.378.378,0,0,0,.433.019,2.328,2.328,0,0,1,.587-.266,1.115,1.115,0,0,1,1.243.528Q-.711-1.423-.2-.542A3.371,3.371,0,0,1,0,0M-.977.025C-1.024-.06-1.06-.13-1.1-.2q-.411-.683-.824-1.362c-.243-.4-.248-.412-.656-.175a1.29,1.29,0,0,1-1.513-.073A4.239,4.239,0,0,0-4.964-2.3a1.264,1.264,0,0,1-.91-1.381c.02-.267-.1-.341-.348-.336-.57.012-1.141,0-1.711,0-.434,0-.439,0-.436.447a1.2,1.2,0,0,1-.777,1.2,4.366,4.366,0,0,0-.88.47,1.379,1.379,0,0,1-1.765.082c-.195-.131-.337-.092-.458.117-.292.5-.586,1-.9,1.487-.147.227-.1.351.13.448a1.76,1.76,0,0,1,.233.128,1.162,1.162,0,0,1,.571,1.173,8.2,8.2,0,0,0,0,1.173,1.168,1.168,0,0,1-.568,1.176c-.042.025-.086.047-.129.071-.4.226-.4.226-.157.627l.747,1.236c.244.4.25.413.657.174a1.288,1.288,0,0,1,1.513.073,4.592,4.592,0,0,0,.9.5,1.256,1.256,0,0,1,.883,1.369c-.02.268.1.341.348.336.57-.011,1.141,0,1.711,0,.434,0,.439,0,.436-.448a1.2,1.2,0,0,1,.777-1.2,4.29,4.29,0,0,0,.88-.47,1.38,1.38,0,0,1,1.765-.082c.2.132.337.093.458-.116.292-.5.586-1,.9-1.487.148-.228.1-.353-.129-.449a1.256,1.256,0,0,1-.131-.069,1.179,1.179,0,0,1-.66-1.319,4.839,4.839,0,0,0,0-1.028A1.164,1.164,0,0,1-1.386.332c.094-.053.194-.1.282-.16A.791.791,0,0,0-.977.025" fill="#96319a"/>
    </g>
    <g id="Group_3201" data-name="Group 3201" transform="translate(57.041 -13338.037)">
      <path id="Path_4305" data-name="Path 4305" d="M0,0,.681-.692c.335.327.67.642.986.975a.515.515,0,0,1,.1.325q.007,3.218,0,6.437a1.042,1.042,0,0,1-.015.127H.832V6.864c0-1.919,0-3.838,0-5.757A.644.644,0,0,0,.6.544C.4.378.208.19,0,0" fill="#96319a"/>
    </g>
    <g id="Group_3202" data-name="Group 3202" transform="translate(61.65 -13330.863)">
      <path id="Path_4306" data-name="Path 4306" d="M0,0H-.943V-.27c0-2.063,0-4.127,0-6.191a.728.728,0,0,1,.232-.575c.282-.271.548-.559.834-.854.23.247.435.467.7.751-.2.177-.44.364-.645.584a.654.654,0,0,0-.166.4C0-4.216,0-2.28,0-.345Z" fill="#96319a"/>
    </g>
    <g id="Group_3203" data-name="Group 3203" transform="translate(55.513 -13338.409)">
      <path id="Path_4307" data-name="Path 4307" d="M0,0A1.408,1.408,0,0,1-1.419-1.421,1.406,1.406,0,0,1,.009-2.832,1.408,1.408,0,0,1,1.412-1.4,1.4,1.4,0,0,1,0,0M0-.946a.494.494,0,0,0,.472-.469A.5.5,0,0,0,0-1.887a.492.492,0,0,0-.471.469A.492.492,0,0,0,0-.946" fill="#96319a"/>
    </g>
    <g id="Group_3204" data-name="Group 3204" transform="translate(65.428 -13339.822)">
      <path id="Path_4308" data-name="Path 4308" d="M0,0A1.4,1.4,0,0,1-1.395,1.413,1.408,1.408,0,0,1-2.831.01a1.4,1.4,0,0,1,1.41-1.428A1.406,1.406,0,0,1,0,0M-.946,0a.5.5,0,0,0-.467-.474.494.494,0,0,0-.473.468.492.492,0,0,0,.467.473A.492.492,0,0,0-.946,0" fill="#96319a"/>
    </g>
    <g id="Group_3205" data-name="Group 3205" transform="translate(52.203 -13335.103)">
      <path id="Path_4309" data-name="Path 4309" d="M0,0A1.407,1.407,0,0,1-1.415-1.424a1.4,1.4,0,0,1,1.4-1.407A1.408,1.408,0,0,1,1.416-1.423,1.407,1.407,0,0,1,0,0M.47-1.4a.492.492,0,0,0-.46-.48.491.491,0,0,0-.48.46.493.493,0,0,0,.46.48A.492.492,0,0,0,.47-1.4" fill="#96319a"/>
    </g>
    <g id="Group_3206" data-name="Group 3206" transform="translate(67.312 -13335.102)">
      <path id="Path_4310" data-name="Path 4310" d="M0,0A1.405,1.405,0,0,1-1.409-1.4,1.408,1.408,0,0,1,0-2.832,1.405,1.405,0,0,1,1.422-1.418,1.407,1.407,0,0,1,0,0M-.016-.946a.5.5,0,0,0,.493-.447A.494.494,0,0,0,.03-1.886a.494.494,0,0,0-.493.447.493.493,0,0,0,.447.493" fill="#96319a"/>
    </g>
    <g id="Group_3207" data-name="Group 3207" transform="translate(53.751 -13334.746)">
      <path id="Path_4311" data-name="Path 4311" d="M0,0,.665-.676c.335.327.667.645.988.973a.379.379,0,0,1,.1.238c.006,1.11,0,2.22,0,3.346H.815V3.573c0-.847.008-1.693-.007-2.539A.7.7,0,0,0,.64.631C.448.409.223.216,0,0" fill="#96319a"/>
    </g>
    <g id="Group_3208" data-name="Group 3208" transform="translate(65.07 -13335.437)">
      <path id="Path_4312" data-name="Path 4312" d="M0,0,.723.707c-.232.212-.468.4-.673.626a.621.621,0,0,0-.157.377c-.013.854-.007,1.708-.007,2.562v.3h-.925c-.006-.085-.017-.169-.017-.253,0-.972-.012-1.944.01-2.916A.948.948,0,0,1-.828.864C-.574.556-.276.283,0,0" fill="#96319a"/>
    </g>
    <g id="Group_3209" data-name="Group 3209" transform="translate(59.782 -13352.107)">
      <path id="Path_4313" data-name="Path 4313" d="M0,0A3.3,3.3,0,0,1,3.285,3.342,3.293,3.293,0,0,1-.072,6.611,3.293,3.293,0,0,1-3.326,3.27,3.292,3.292,0,0,1,0,0M-2.383,3.31A2.385,2.385,0,0,0-.039,5.668a2.388,2.388,0,0,0,2.38-2.383A2.384,2.384,0,0,0-.018.943,2.386,2.386,0,0,0-2.383,3.31" fill="#96319a"/>
    </g>
  </g>
</svg>
