<svg xmlns="http://www.w3.org/2000/svg" width="42.52" height="42.52" viewBox="0 0 42.52 42.52">
  <g id="Group_3216" data-name="Group 3216" transform="translate(-38.503 13259.118)">
    <g id="Group_3189" data-name="Group 3189" transform="translate(59.763 -13216.599)">
      <path id="Path_4293" data-name="Path 4293" d="M0,0A21.261,21.261,0,0,0,21.26-21.26,21.261,21.261,0,0,0,0-42.52,21.261,21.261,0,0,0-21.26-21.26,21.261,21.261,0,0,0,0,0" fill="#fff"/>
    </g>
    <g id="Group_3210" data-name="Group 3210" transform="translate(47.881 -13232.086)">
      <path id="Path_4314" data-name="Path 4314" d="M0,0A.629.629,0,0,1,.631-.288c.235.017.472,0,.741,0,0-.428.009-.835,0-1.24a.7.7,0,0,1,.225-.557Q3.861-4.339,6.118-6.606a3.234,3.234,0,0,1,2.406-1c1.351.009,2.7,0,4.055.005A2.633,2.633,0,0,0,14.3-8.178c.954-.757,1.918-1.5,2.884-2.243a.45.45,0,0,0,.192-.408c-.008-.789,0-1.577,0-2.377a.32.32,0,0,1,.32-.32h.272a.319.319,0,0,1,.32.319V-6.95c0,.086-.005.172,0,.257a.475.475,0,0,0,.456.461.467.467,0,0,0,.452-.464c.007-.143.008-.286.007-.431a.458.458,0,0,1,.458-.459.459.459,0,0,1,.459.466,4.081,4.081,0,0,1-.07.8,1.332,1.332,0,0,1-1.522.994,1.382,1.382,0,0,1-1.155-1.359c0-.093,0-.186,0-.342-.253.222-.465.405-.674.591-.783.7-1.561,1.4-2.35,2.085a.49.49,0,0,0-.181.416c.007,1.162,0,2.323,0,3.485,0,.417-.055.5-.457.659V7.8c0,.455-.143.6-.594.6s-.9,0-1.342,0a.492.492,0,0,1-.564-.475q-.321-1.752-.639-3.5a.168.168,0,0,0-.084-.119c-.049.237-.1.474-.146.713-.178.971-.351,1.944-.529,2.915a.488.488,0,0,1-.567.47q-.685,0-1.371,0c-.41,0-.56-.154-.56-.573q0-3.686,0-7.371V.207c-.4-.156-.456-.236-.456-.659,0-.959,0-1.919,0-2.946-.35.3-.657.561-.962.825-.287.249-.678.45-.827.766a2.818,2.818,0,0,0-.041,1.1c0,.132,0,.263,0,.426.306,0,.588,0,.871,0a.445.445,0,0,1,.5.49q0,1.8,0,3.6a.435.435,0,0,1-.481.478c-1.808,0-3.617.009-5.425-.01C.325,4.271.163,4.095,0,4ZM13.256-.755v-.32c0-1.057.005-2.114,0-3.172a.72.72,0,0,1,.265-.6q1.852-1.634,3.695-3.28c.055-.05.141-.109.143-.166.013-.352.007-.705.007-1.1-.893.694-1.734,1.348-2.576,2a3.245,3.245,0,0,1-2.064.7c-1.4-.007-2.8,0-4.2,0a2.262,2.262,0,0,0-1.657.647Q4.995-4.175,3.132-2.3c-.047.048-.085.106-.15.188a4.6,4.6,0,0,1,.531,0,.918.918,0,0,0,.763-.28c.863-.762,1.746-1.5,2.619-2.255.181-.156.362-.283.614-.167s.266.318.265.549c0,1.067,0,2.134,0,3.2v.307Zm-4.3,8.231c.369-2,.735-3.97,1.1-5.941.049-.268.176-.445.462-.445s.417.177.465.445c.145.8.3,1.606.446,2.409q.326,1.762.647,3.523h.707V.186H8.243v7.29ZM5.46,3.359V1.589c-.165.217-.307.384-.426.566a.636.636,0,0,1-.6.306c-.837-.012-1.674-.01-2.511,0a.586.586,0,0,1-.531-.266c-.137-.2-.288-.381-.467-.615v1.78ZM1.387.637c.226.3.411.567.615.813a.356.356,0,0,0,.246.09c.636.007,1.272.006,1.908,0,.071,0,.171-.008.208-.053.216-.265.418-.543.651-.852Zm2.7-1.823H2.3v.891H4.091Zm0,.891" fill="#ff3459"/>
    </g>
    <g id="Group_3211" data-name="Group 3211" transform="translate(66.334 -13252.031)">
      <path id="Path_4315" data-name="Path 4315" d="M0,0A14.659,14.659,0,0,1,1.533.412,5.91,5.91,0,0,1,5.312,5.837c0,.409-.155.561-.571.563-.4,0-.8,0-1.2,0-.319,0-.458-.128-.513-.45-.05-.285-.225-.461-.459-.46s-.406.175-.455.462A.455.455,0,0,1,1.6,6.4c-.419,0-.838,0-1.257,0-.319,0-.457-.128-.513-.45-.049-.285-.225-.461-.458-.46s-.406.176-.455.463A.455.455,0,0,1-1.6,6.4c-.419,0-.837,0-1.256,0-.319,0-.457-.128-.513-.451a.483.483,0,0,0-.459-.459c-.234,0-.407.178-.455.463-.053.323-.189.446-.513.45q-.629.006-1.256,0c-.357,0-.511-.168-.514-.533A5.916,5.916,0,0,1-2.6.35C-2.145.2-1.667.115-1.2,0ZM-.133.93a.776.776,0,0,0-.032.131c0,1.142-.006,2.283,0,3.424,0,.077.089.163.153.229a4.773,4.773,0,0,1,.6.622c.116.176.241.148.383.15s.278.031.381-.154a1.42,1.42,0,0,1,.468-.519.424.424,0,0,0,.231-.5A5.022,5.022,0,0,0,.188,1.088,1.714,1.714,0,0,0-.133.93m-.952,0a1.258,1.258,0,0,0-.3.119,4.949,4.949,0,0,0-1.928,3.37.314.314,0,0,0,.164.342,2.011,2.011,0,0,1,.541.566c.109.177.235.159.38.156s.269.029.385-.148a4.846,4.846,0,0,1,.6-.623c.063-.066.153-.15.154-.227.009-1.16.006-2.32.006-3.555M-5.63,5.465c.445.041.444.04.657-.274.048-.071.093-.166.163-.2.557-.241.613-.743.674-1.25a1.854,1.854,0,0,1,.125-.467c.208-.514.428-1.023.648-1.546A5.019,5.019,0,0,0-5.63,5.465M2.084,1.752A6.556,6.556,0,0,1,3,4.483c.009.08.107.158.176.224.184.175.437.31.547.521.162.31.369.28.647.229a4.938,4.938,0,0,0-2.287-3.7" fill="#ff3459"/>
    </g>
    <g id="Group_3212" data-name="Group 3212" transform="translate(58.392 -13244.715)">
      <path id="Path_4316" data-name="Path 4316" d="M0,0A2.272,2.272,0,0,1,2.284,2.284,2.275,2.275,0,0,1,0,4.57,2.275,2.275,0,0,1-2.283,2.285,2.272,2.272,0,0,1,0,0M1.371,2.274A1.393,1.393,0,0,0,0,.914,1.393,1.393,0,0,0-1.37,2.281,1.4,1.4,0,0,0,.018,3.656,1.4,1.4,0,0,0,1.371,2.274" fill="#ff3459"/>
    </g>
  </g>
</svg>
